<svg width="14" height="18" viewBox="0 0 14 18" fill="none" xmlns="http://www.w3.org/2000/svg">
<path d="M6.99822 0C5.13013 0 3.61141 1.55664 3.61141 3.47138V3.55542H1.37255C1.19073 3.55542 1.03743 3.69793 1.01961 3.88429L0 15.676C0 15.687 0 15.6979 0 15.7089C0 16.9732 1.13725 18 2.53832 18H11.4617C12.8627 18 14 16.9732 14 15.7089C14 15.6979 14 15.687 14 15.676L12.9768 3.88429C12.959 3.69793 12.8093 3.55542 12.6239 3.55542H10.385V3.47138C10.385 1.55664 8.86631 0 6.99822 0ZM4.31729 3.47138C4.31729 1.95493 5.51872 0.723508 6.99822 0.723508C8.47772 0.723508 9.67914 1.95493 9.67914 3.47138V3.55542H4.31729V3.47138ZM12.2995 4.27893L13.2906 15.7235C13.2799 16.5822 12.4635 17.2765 11.4581 17.2765H2.53832C1.53298 17.2765 0.716578 16.5822 0.705882 15.7235L1.69697 4.27893H3.61141V5.9525C3.61141 6.15347 3.76827 6.31425 3.96435 6.31425C4.16043 6.31425 4.31729 6.15347 4.31729 5.9525V4.27893H9.67914V5.9525C9.67914 6.15347 9.83601 6.31425 10.0321 6.31425C10.2282 6.31425 10.385 6.15347 10.385 5.9525V4.27893H12.2995Z" fill="white"/>
</svg>
