<svg width="462" height="343" viewBox="0 0 462 343" fill="none" xmlns="http://www.w3.org/2000/svg">
<path d="M226.782 160.396C294.559 152.513 366.704 151.246 442.513 160.396C448.149 160.959 453.645 161.804 459.14 162.508C460.831 182.919 461.536 206.006 460.549 231.063C459.563 258.372 456.604 283.007 453.081 304.826C423.772 307.079 393.336 308.768 361.49 309.472C314.004 310.598 269.054 309.894 226.782 307.642C225.655 307.642 220.159 307.501 215.65 302.996C212.691 300.04 211 296.239 211 291.875V176.162C211 167.435 218.045 160.396 226.782 160.396Z" fill="#D7DEED"/>
<path d="M227.586 160.402C295.115 152.512 366.997 151.244 442.529 160.402C447.723 160.966 452.918 161.67 457.972 162.375C458.674 162.515 459.095 162.938 459.236 163.643C460.78 183.932 461.482 206.475 460.64 231.132C459.657 257.903 456.849 282.278 453.339 303.835C453.199 304.54 452.778 304.963 452.076 304.963C423.295 307.217 393.251 308.767 361.943 309.471C314.63 310.598 269.844 309.894 227.726 307.64C226.603 307.64 221.128 307.499 216.635 302.99C213.687 300.031 212.002 296.227 212.002 291.859V176.042C211.862 167.447 218.881 160.402 227.586 160.402Z" stroke="#111111" stroke-miterlimit="10"/>
<path d="M282.09 252.893C281.669 252.893 281.107 252.755 280.686 252.616C280.264 252.34 279.983 252.063 279.983 251.786C279.983 251.509 280.124 251.233 280.405 250.679C280.686 250.126 280.826 249.849 280.826 249.572L280.686 244.591L280.264 229.094L280.124 222.176C280.124 218.025 279.983 215.396 279.843 214.289C279.702 213.874 279.562 213.459 279.421 212.906C279.14 212.214 279 211.66 279 211.384C279 210.415 280.405 210 283.354 210H283.635C285.602 210 287.288 210.692 288.692 211.937C289.816 212.906 290.799 214.566 291.642 216.78C292.204 218.579 292.766 220.516 293.047 222.591C293.187 223.698 293.328 225.497 293.468 227.849V229.648C293.468 232 293.187 234.491 292.485 237.258C291.923 240.025 290.94 242.516 289.816 244.868C289.114 246.39 288.271 247.774 287.147 249.019C286.023 250.264 285.04 251.233 284.057 251.925C283.074 252.478 282.371 252.893 282.09 252.893ZM282.933 249.987C284.338 249.296 285.602 248.189 286.726 246.805C287.849 245.421 288.692 243.899 289.395 242.239C289.957 240.855 290.518 239.195 290.799 237.535C291.221 235.736 291.502 234.075 291.642 232.553C291.783 231.17 291.783 229.925 291.783 228.679C291.783 217.61 288.692 212.075 282.512 212.075C281.669 212.075 281.247 212.214 281.247 212.767C281.247 214.151 281.388 215.673 281.528 217.472C281.669 219.27 281.809 220.931 281.809 222.176C281.809 224.252 281.95 227.849 282.231 232.969C282.512 237.396 282.652 240.994 282.652 243.761V250.126H282.933V249.987ZM302.599 253.447C301.896 253.447 301.475 253.031 301.475 252.201V251.509C301.475 251.371 301.475 251.094 301.475 250.818L301.194 250.541C301.475 249.711 301.615 249.019 301.615 248.189C301.615 247.358 301.615 246.113 301.475 244.453L301.334 240.717C301.334 238.78 301.334 236.013 301.475 232.277C301.615 228.956 301.756 226.05 301.756 223.698L301.615 220.239C301.475 219.27 301.475 218.025 301.475 216.78C301.475 216.226 301.615 215.811 301.896 215.535C302.177 215.258 302.599 215.12 303.161 215.12C303.582 215.12 303.863 215.258 304.144 215.396C304.284 215.396 304.846 215.535 305.829 215.673C306.813 215.811 307.656 215.95 308.358 216.226C309.06 216.503 309.482 216.78 309.482 217.057C309.482 217.472 309.06 217.748 308.358 218.164C306.11 217.472 304.565 217.057 303.722 217.057L303.441 217.333C303.441 217.61 303.441 218.44 303.441 219.824C303.441 221.484 303.441 222.868 303.301 224.252C303.301 225.635 303.301 227.019 303.301 228.679C303.301 229.786 303.582 230.201 304.144 230.201H305.127C305.408 230.201 305.829 230.201 306.11 230.201C307.656 230.201 308.358 230.478 308.358 231.17C308.358 231.585 308.217 232 308.077 232.277C307.936 232.553 307.655 232.692 307.234 232.692C306.672 232.692 306.251 232.553 305.97 232.277L304.144 232H303.863L303.582 232.277V232.415C303.722 233.107 303.722 234.491 303.722 236.843C303.722 238.365 303.722 239.61 303.722 240.855V244.868C303.722 246.39 303.722 247.912 303.863 249.434C303.863 250.264 304.144 250.956 304.425 251.233C304.706 251.509 305.408 251.648 306.391 251.648H307.375C307.655 251.648 308.077 251.648 308.498 251.648C309.622 251.648 310.184 251.925 310.184 252.34C310.184 253.031 309.341 253.308 307.656 253.308H302.599V253.447ZM317.207 253.447C316.645 253.447 316.365 253.031 316.224 252.201C316.365 251.925 316.365 251.371 316.365 250.264C316.365 246.805 316.365 241.686 316.505 234.767C316.645 227.987 316.645 223.006 316.645 219.962L316.786 217.887L316.926 216.226C316.926 215.95 317.067 215.811 317.348 215.811C317.488 215.811 317.769 215.811 318.191 215.95H318.331C318.331 216.78 318.331 217.472 318.331 218.164V220.377V226.604C318.331 228.403 318.331 230.478 318.331 232.83C318.331 232.969 318.331 233.384 318.331 234.075V235.321C318.331 236.013 318.331 236.843 318.331 237.673C318.331 238.503 318.331 239.333 318.331 240.025V242.516L318.191 242.931C318.191 243.069 318.191 243.069 318.191 243.208V243.484C318.191 243.761 318.191 244.038 318.331 244.314L318.191 249.711V249.987C318.191 250.679 318.191 250.956 318.191 251.094C318.191 251.233 318.331 251.371 318.472 251.371L321.421 251.509C322.264 251.509 322.967 251.509 323.247 251.509C323.528 251.509 323.809 251.509 323.95 251.509H324.09C324.231 251.509 324.512 251.648 324.652 251.786C324.793 251.925 324.933 252.201 324.933 252.478C324.933 252.893 324.652 253.17 323.95 253.17C323.247 253.17 321.702 253.17 319.174 253.17H319.314C318.893 253.17 318.612 253.17 318.191 253.17C317.91 253.447 317.629 253.447 317.207 253.447ZM333.642 252.755C332.799 252.755 332.237 252.616 332.097 252.201C331.957 252.201 331.816 252.201 331.676 252.201H331.254C330.411 252.201 329.849 252.063 329.709 251.648C329.709 251.371 329.849 251.094 330.13 250.956L330.411 250.679H332.097L332.378 250.403L332.518 249.849V249.157C332.518 246.805 332.518 244.73 332.378 242.931L332.237 240.855L332.097 236.704C332.097 235.182 332.097 232.969 332.237 230.063L332.378 223.421C332.378 220.516 332.237 218.302 332.097 216.78C331.816 216.641 331.114 216.642 330.411 216.642H329.709C329.428 216.642 329.288 216.642 329.007 216.642C328.304 216.642 327.883 216.365 327.883 215.673C327.883 215.535 328.023 215.396 328.445 215.258C328.726 215.12 329.147 214.981 329.288 214.981C330.692 214.981 332.237 215.12 333.642 215.258C334.485 215.258 335.468 215.396 336.311 215.811C337.013 216.088 337.294 216.365 337.294 216.78C337.294 216.918 337.294 217.057 337.154 217.195L335.89 217.333C335.609 217.057 335.047 217.057 334.204 217.057L333.923 217.195C334.064 217.472 334.064 218.579 334.064 220.239C334.064 222.73 334.064 224.943 334.064 227.019L333.923 233.799C333.923 235.459 334.064 237.535 334.204 240.025C334.344 242.792 334.344 244.868 334.344 246.252V246.943C334.344 247.22 334.344 247.497 334.344 247.912C334.344 248.742 334.344 249.296 334.485 249.434V249.572C334.485 249.987 334.906 250.126 335.749 250.126C336.03 250.126 336.452 250.126 336.592 250.126H337.435C338.559 250.126 339.12 250.403 339.12 250.956C339.12 251.233 338.98 251.648 338.839 251.786C338.559 251.925 338.278 252.063 337.856 252.063C337.575 252.063 337.154 252.063 336.873 251.925C336.592 251.925 336.171 251.925 335.89 251.925C335.609 251.925 335.328 252.063 334.906 252.201C334.204 252.616 333.923 252.755 333.642 252.755ZM348.672 252.893C348.672 249.987 348.251 245.698 347.268 240.025C346.284 234.352 345.161 228.126 343.615 221.484L343.194 219.686L342.492 217.057C342.211 216.226 342.211 215.811 342.211 215.535C342.211 215.396 342.351 215.258 342.492 215.12C342.632 214.981 342.913 214.843 343.053 214.843C343.615 214.843 344.037 215.396 344.318 216.642C344.458 217.195 344.599 217.748 344.739 218.302C344.88 218.855 345.02 219.409 345.02 219.547C345.161 220.101 345.161 220.516 345.161 220.516C345.863 223.421 346.284 225.22 346.425 226.05L346.987 228.956L347.548 231.723L348.11 234.629C348.251 235.597 348.391 236.566 348.532 237.258L349.375 242.792C349.375 242.931 349.515 243.899 349.796 245.698L350.217 248.465C350.92 245.975 351.622 242.239 352.184 237.258C352.746 232.553 353.448 227.849 354.431 223.145C355.274 218.994 355.836 216.088 356.258 214.289L356.96 214.013C357.1 214.013 357.241 214.151 357.381 214.289C357.522 214.428 357.662 214.566 357.662 214.566C357.662 215.396 357.522 216.503 357.1 218.025L356.819 219.547L355.836 223.975C355.274 226.465 354.853 228.264 354.572 229.648C354.431 231.031 354.15 232.83 353.87 235.321L353.729 236.566C353.589 238.642 353.448 240.025 353.308 240.717C353.167 241.409 353.027 242.377 352.605 243.484C352.324 244.591 352.043 245.56 351.903 246.528L351.763 247.774C351.622 249.157 351.482 250.264 351.341 251.233C351.06 252.478 350.358 253.17 349.515 253.17L348.672 252.893ZM349.936 248.742V249.019V248.742ZM365.809 253.447C365.107 253.447 364.686 253.031 364.686 252.201V251.509C364.686 251.371 364.686 251.094 364.686 250.818L364.405 250.541C364.686 249.711 364.826 249.019 364.826 248.189C364.826 247.358 364.826 246.113 364.686 244.453L364.545 240.717C364.545 238.78 364.545 236.013 364.686 232.277C364.826 228.956 364.967 226.05 364.967 223.698L364.826 220.239C364.686 219.27 364.686 218.025 364.686 216.78C364.686 216.226 364.826 215.811 365.107 215.535C365.388 215.258 365.809 215.12 366.371 215.12C366.793 215.12 367.074 215.258 367.355 215.396C367.495 215.396 368.057 215.535 369.04 215.673C370.023 215.811 370.866 215.95 371.569 216.226C372.271 216.503 372.692 216.78 372.692 217.057C372.692 217.472 372.271 217.748 371.569 218.164C369.321 217.472 367.776 217.057 366.933 217.057L366.652 217.333C366.652 217.61 366.652 218.44 366.652 219.824C366.652 221.484 366.652 222.868 366.512 224.252C366.512 225.635 366.512 227.019 366.512 228.679C366.512 229.786 366.793 230.201 367.355 230.201H368.338C368.619 230.201 369.04 230.201 369.321 230.201C370.866 230.201 371.569 230.478 371.569 231.17C371.569 231.585 371.428 232 371.288 232.277C371.147 232.553 370.866 232.692 370.445 232.692C369.883 232.692 369.462 232.553 369.181 232.277L367.355 232H367.074L366.793 232.277V232.415C366.933 233.107 366.933 234.491 366.933 236.843C366.933 238.365 366.933 239.61 366.933 240.855V244.868C366.933 246.39 366.933 247.912 367.074 249.434C367.074 250.264 367.354 250.956 367.635 251.233C367.916 251.509 368.619 251.648 369.602 251.648H370.585C370.866 251.648 371.288 251.648 371.709 251.648C372.833 251.648 373.395 251.925 373.395 252.34C373.395 253.031 372.552 253.308 370.866 253.308H365.809V253.447ZM388.284 253.447C387.863 252.893 387.301 251.648 386.739 249.572C386.177 247.497 385.756 245.006 385.194 242.377C384.913 240.163 384.492 238.088 383.93 236.013C383.508 234.075 383.087 233.245 382.666 233.245H382.525C381.682 233.245 381.261 233.522 381.261 234.075C381.261 236.843 381.401 240.994 381.682 246.528C381.823 249.987 381.963 251.925 382.244 252.478L381.823 253.447H380.98L380.559 253.031C379.997 235.597 379.575 223.698 379.575 217.333C379.575 216.918 379.575 216.642 379.575 216.365C379.716 216.088 379.716 215.811 379.997 215.673C380.137 215.396 380.418 215.258 380.839 215.258C382.806 215.258 384.351 215.673 385.615 216.642C386.739 217.61 387.441 218.994 387.441 220.792V224.943C387.441 225.635 387.161 226.604 386.739 227.849C386.318 229.094 385.756 230.201 385.194 231.17L384.492 232.553C384.913 234.491 385.756 237.95 387.02 242.931C388.284 247.912 388.987 250.541 389.127 250.818C389.127 250.818 389.268 250.956 389.268 251.094C389.408 251.233 389.408 251.509 389.689 251.786C389.97 252.34 390.11 252.755 390.11 253.17C390.11 253.723 389.829 254 389.408 254L388.284 253.447ZM381.542 231.723C382.244 231.723 382.946 231.308 383.508 230.616C384.07 229.925 384.492 228.956 384.913 227.849C385.475 225.497 385.896 223.698 385.896 222.314C385.896 221.484 385.896 220.792 385.756 220.101C385.615 219.547 385.475 218.994 385.334 218.302C384.913 216.918 383.789 216.365 382.104 216.365C381.963 216.365 381.823 216.503 381.682 216.918C381.542 217.195 381.542 217.61 381.542 217.887C381.542 220.377 381.542 222.73 381.682 224.805C381.401 226.742 381.401 228.956 381.542 231.723ZM399.943 253.585C399.803 253.585 399.662 253.447 399.522 253.308C399.381 253.17 399.241 253.031 399.241 252.893C399.522 251.925 399.803 248.742 399.803 242.931C399.803 241.824 399.803 240.302 399.662 238.226L399.381 234.214L399.1 233.522L399.241 232.83C398.96 232.277 398.679 231.447 398.258 230.201C397.836 228.956 397.274 227.711 396.853 226.465C395.448 222.868 394.605 220.239 394.184 218.717C393.903 218.025 393.763 217.195 393.622 216.642L394.465 215.95C394.886 216.088 395.448 217.195 396.151 219.547C396.712 221.208 397.274 222.868 397.696 224.528L398.398 226.742C399.1 229.094 399.522 230.34 399.943 230.34L400.224 229.371L400.084 229.094C400.365 228.679 400.786 227.434 401.207 225.082C401.769 222.453 402.191 220.239 402.612 218.44C403.174 216.365 403.595 215.258 404.157 215.258C404.298 215.258 404.579 215.258 404.719 215.396C404.86 215.535 405 215.673 405 215.811C405 216.365 404.438 218.579 403.314 222.453C402.753 224.252 402.191 226.05 401.91 227.711C401.488 229.648 401.207 231.308 401.207 232.83C401.348 233.245 401.488 233.522 401.488 233.799C401.488 233.937 401.488 234.214 401.348 234.629C401.207 234.906 401.207 235.321 401.207 235.459C401.207 235.597 401.348 236.566 401.488 237.95C401.629 238.918 401.769 239.887 401.769 240.579C401.769 242.239 401.769 243.761 401.769 245.006V249.572V249.849C401.207 252.34 400.786 253.585 399.943 253.585Z" fill="#111111"/>
<path d="M31.9808 112.425L47.8263 112C46.5058 117.668 45.4788 125.46 45.4788 134.67C45.7722 144.73 47.3861 153.232 49 159.324C42.6912 160.883 36.5291 162.441 30.2202 164C28.1662 158.191 25.0851 147.139 26.2589 133.537C27.1392 124.185 29.7801 116.959 31.9808 112.425Z" fill="#FF7A1B"/>
<path d="M31.7153 113.264C32.0128 112.702 32.4591 112.421 33.0541 112.421L46.2938 112C47.3351 112 47.9302 112.842 47.7814 113.685C46.5913 119.161 45.6988 126.183 45.8475 134.467C45.9963 143.735 47.4839 151.599 48.9715 157.496C49.1203 158.198 48.674 159.041 47.9302 159.181C42.426 160.445 37.0707 161.849 31.5665 162.973C30.8227 163.113 30.0789 162.692 29.7814 162.13C27.6987 156.092 25.021 145.701 26.3599 133.204C27.2525 124.638 29.6326 117.898 31.7153 113.264Z" stroke="#111111" stroke-miterlimit="10"/>
<path d="M15.9042 111.219L30.2164 107C30.4943 112.766 31.189 120.5 33.6902 129.359C36.3303 139.062 39.943 146.656 43 152.141C37.5808 155.094 32.3007 158.047 26.8815 161C23.5466 155.938 17.9885 145.953 15.9042 132.734C14.3757 123.734 15.0705 116.281 15.9042 111.219Z" fill="#FF7A1B"/>
<path d="M15.734 112.679C15.8757 112.119 16.1591 111.7 16.726 111.56L28.7712 108.063C29.6214 107.783 30.6134 108.482 30.6134 109.322C30.8968 114.777 31.8887 121.911 34.0144 129.744C36.4234 138.697 39.8244 145.971 42.8003 151.286C43.2254 151.985 42.942 152.825 42.2334 153.244C37.5571 155.762 32.8807 158.28 28.2043 160.798C27.4958 161.218 26.7873 160.938 26.3621 160.378C22.9611 155.063 18.0013 145.691 15.8757 133.381C14.4586 124.848 15.0255 117.714 15.734 112.679Z" stroke="#111111" stroke-miterlimit="10"/>
<path d="M1 131.376L13.1017 122C15.522 127.256 19.5085 134.075 25.2034 141.178C31.4678 148.992 38.017 154.674 43 158.51C39.0136 163.34 35.1695 168.028 31.1831 173C26.0576 169.591 16.8034 162.63 9.54238 151.265C4.41696 143.451 1.99661 136.348 1 131.376Z" fill="#FF7A1B"/>
<path d="M2.05243 131.426C1.91262 130.864 2.05242 130.302 2.47183 130.021L12.1182 122.292C12.8172 121.73 13.9356 122.011 14.2152 122.854C16.5918 127.773 20.2267 134.096 25.2595 140.56C30.8516 147.867 36.7233 153.347 41.4765 157.141C42.0357 157.563 42.1755 158.546 41.7561 159.108C38.4009 163.183 35.1854 167.399 31.8302 171.474C31.4108 172.036 30.572 172.176 30.0128 171.755C24.8401 168.101 16.5918 161.357 10.0211 150.677C5.54748 143.23 3.31064 136.344 2.05243 131.426Z" stroke="#111111" stroke-miterlimit="10"/>
<path d="M129.298 228.287C120.175 228.845 105.437 230.518 88.0325 236.233C56.8729 246.547 38.2053 263.274 30.2049 256.723C26.5555 253.796 25.0116 245.99 27.3977 241.111C28.8013 238.184 31.047 237.208 33.8542 231.493C35.2578 228.566 35.9595 227.172 36.0999 225.36C36.2403 220.203 31.4681 214.488 26.4152 213.233C16.3094 210.864 6.48432 227.312 5.92288 228.287C4.80002 230.378 -2.77933 243.899 3.39643 258.535C3.95786 259.929 8.30898 269.826 18.8358 275.122C32.7313 282.092 47.3286 275.262 72.593 266.759C90.2782 260.765 112.455 252.82 138 242.505C135.052 237.905 132.105 233.027 129.298 228.287Z" fill="white" stroke="#111111" stroke-miterlimit="10"/>
<path d="M126.138 28.6682C124.873 29.0896 122.483 27.4043 122.343 26.1403C121.64 22.0674 118.829 14.9047 109.412 4.37141C107.022 1.70297 105.336 1.00076 103.368 1.00076C95.4971 0.860314 87.4855 20.2416 78.9118 56.7571C69.6353 96.2219 63.5915 122.204 63.0293 161.248C62.4671 207.875 70.057 248.744 80.0362 282.03C80.0362 282.17 80.0362 282.451 80.0362 282.591C79.474 288.35 78.7713 296.215 78.9118 305.765C79.0524 323.601 79.3335 332.59 85.0961 337.505C91.1399 342.702 102.244 343.685 108.99 338.91C120.937 330.202 117.564 313.911 119.11 297.198C119.532 292.282 174.488 291.58 183.343 291.439C184.045 291.439 184.608 292.001 184.748 292.703C185.17 295.231 185.873 298.743 186.997 302.394C189.527 310.961 195.711 331.326 208.642 333.854C214.124 334.977 221.151 332.87 225.228 328.236C232.115 320.652 229.444 306.607 224.384 278.659C224.244 277.816 224.103 276.974 223.962 276.552C223.962 276.271 223.962 276.131 223.962 275.85C224.946 272.76 232.958 249.166 233.239 248.323C238.018 233.998 241.813 190.46 238.721 67.7118C238.721 67.4309 238.721 67.2904 238.861 67.0096C240.126 64.4816 247.997 45.9429 241.391 18.8372C241.251 18.2754 240.688 17.8541 240.126 17.8541C235.628 17.8541 217.919 18.8372 204.707 31.3367C204.004 32.0389 202.317 32.6007 201.333 32.4603C190.933 30.3536 142.863 24.0336 126.138 28.6682Z" fill="white" stroke="#111111" stroke-miterlimit="10"/>
<path d="M230 139C232.683 141.761 237.485 145.765 244.405 148.527C258.528 153.773 269.261 147.836 275.475 154.878C278.441 158.33 279.995 163.714 278.3 167.857C274.346 176.831 255.562 176.141 249.772 175.865C241.863 175.45 235.367 173.794 230.989 172.275" fill="white"/>
<path d="M230 139C232.683 141.761 237.485 145.765 244.405 148.527C258.528 153.773 269.261 147.836 275.475 154.878C278.441 158.33 279.995 163.714 278.3 167.857C274.346 176.831 255.562 176.141 249.772 175.865C241.863 175.45 235.367 173.794 230.989 172.275" stroke="#111111" stroke-miterlimit="10" stroke-linecap="round" stroke-linejoin="round"/>
<path d="M74.8876 130C68.213 135.668 62.1065 138.503 57.8462 139.778C48.1894 142.896 42.0828 141.479 36.9704 146.297C33.8462 149.414 32 153.241 32 157.067C32 157.208 32 157.208 32 157.492C32.142 161.601 35.4083 164.436 36.6864 165.428C42.3669 170.387 55.0059 168.829 57.8462 168.545C62.9586 167.978 70.9112 166.42 80 161.885" fill="white"/>
<path d="M74.8876 130C68.213 135.668 62.1065 138.503 57.8462 139.778C48.1894 142.896 42.0828 141.479 36.9704 146.297C33.8462 149.414 32 153.241 32 157.067C32 157.208 32 157.208 32 157.492C32.142 161.601 35.4083 164.436 36.6864 165.428C42.3669 170.387 55.0059 168.829 57.8462 168.545C62.9586 167.978 70.9112 166.42 80 161.885" stroke="#111111" stroke-miterlimit="10" stroke-linecap="round" stroke-linejoin="round"/>
<path d="M157.071 111C157.071 111 165.847 107.545 165.989 105.674C166.13 103.947 164.998 99.4843 157.92 99.0524C150.842 98.4767 149.143 102.795 149.002 104.522C148.86 106.394 157.071 111 157.071 111Z" fill="#111111" stroke="#111111" stroke-width="1.4822" stroke-miterlimit="10"/>
<path d="M157 110L156 123" stroke="#111111" stroke-miterlimit="10" stroke-linecap="round" stroke-linejoin="round"/>
<path d="M141 115C142.158 116.445 146.211 121.14 153.592 122.585C164.592 124.752 173.132 117.769 174 117.047" stroke="#111111" stroke-miterlimit="10" stroke-linecap="round" stroke-linejoin="round"/>
<path d="M143 112C142.522 112.923 138.064 116.308 139.178 118" stroke="#111111" stroke-miterlimit="10" stroke-linecap="round" stroke-linejoin="round"/>
<path d="M105.568 99.0026C98.1968 98.8663 92.7368 104.046 93.0098 110.59C93.2828 117.133 98.4698 120.132 106.114 119.996C113.758 119.859 117.716 116.315 117.989 110.453C118.262 104.592 113.348 99.1389 105.568 99.0026Z" fill="#FF7A1B" stroke="#111111" stroke-miterlimit="10"/>
<path d="M105 106C92.6516 99.0042 76.471 94.6146 61 96.3979" stroke="#111111" stroke-miterlimit="22.9256" stroke-linecap="round" stroke-linejoin="round"/>
<path d="M102 108C96.6646 106.39 74.6019 102.365 56 107.597" stroke="#111111" stroke-miterlimit="22.9256" stroke-linecap="round" stroke-linejoin="round"/>
<path d="M102 113.756C93.6864 110.836 79.7364 111.323 71 117" stroke="#111111" stroke-miterlimit="22.9256" stroke-linecap="round" stroke-linejoin="round"/>
<path d="M207.552 106.099C215.309 106.938 219.992 112.954 218.821 119.249C217.651 125.685 211.796 127.923 203.893 126.664C195.99 125.405 192.477 121.348 193.063 115.612C193.794 109.876 199.795 105.26 207.552 106.099Z" fill="#FF7A1B" stroke="#111111" stroke-miterlimit="10"/>
<path d="M208 112C220.565 107.229 236.481 105.294 251 108.776" stroke="#111111" stroke-miterlimit="22.9256" stroke-linecap="round" stroke-linejoin="round"/>
<path d="M210 114.385C215.322 112.982 236.612 110.455 253 120" stroke="#111111" stroke-miterlimit="22.9256" stroke-linecap="round" stroke-linejoin="round"/>
<path d="M209 120.33C217.187 119.105 230.368 121.283 238 127" stroke="#111111" stroke-miterlimit="22.9256" stroke-linecap="round" stroke-linejoin="round"/>
<path d="M147.41 200.461C147.693 201.176 148.683 201.176 148.966 200.604C153.494 191.156 161.7 185 170.615 185C171.888 185 179.529 185.143 184.905 190.726C192.971 199.315 189.292 213.058 188.301 216.637C184.622 229.95 174.718 237.681 167.219 243.55C160.568 248.703 154.343 251.853 149.815 254C149.673 254 149.673 254 149.532 254C144.863 251.996 137.647 248.56 130.147 242.548C122.648 236.535 112.319 228.232 109.772 214.776C109.206 211.197 107.084 200.89 113.734 192.873C114.442 192.015 120.243 185.143 129.015 185.286C136.656 185.573 144.155 191.585 147.41 200.461Z" fill="#FF7A1B" stroke="#111111" stroke-miterlimit="10"/>
<path d="M150.121 222C150.784 222.426 151.182 223.278 150.917 223.846C150.652 224.697 149.591 224.981 149.591 224.981C148.663 225.123 148 224.413 148 224.413" stroke="#111111" stroke-miterlimit="10" stroke-linecap="round" stroke-linejoin="round"/>
<path d="M101.864 38.5228C97.4748 39.3607 93.7313 40.1986 95.4094 30.7026C96.7002 23.7203 100.444 14.9225 102.251 10.7331C102.767 9.75562 104.058 9.75562 104.445 10.7331C106.382 14.9225 109.996 23.7203 109.996 28.6079C110.125 35.1713 107.027 37.4057 101.864 38.5228Z" fill="#FF7A1B" stroke="#111111" stroke-miterlimit="10"/>
<path d="M221.482 51.838C225.119 55.1885 228.366 58.1201 231.353 48.2083C233.691 40.8093 234.6 30.3391 234.99 25.453C235.12 24.3361 233.951 23.6381 233.042 24.1965C229.275 26.9886 221.222 33.1311 218.754 37.738C215.377 44.1598 217.196 47.9291 221.482 51.838Z" fill="#FF7A1B" stroke="#111111" stroke-miterlimit="10"/>
<path d="M190.113 50.2613C188.898 49.9913 188.494 48.6413 189.843 48.3712C190.248 48.2362 190.787 48.2363 191.192 48.1013C192.002 47.9662 192.946 47.9662 193.756 48.1013C194.566 48.2363 195.51 48.3713 196.32 48.6413C196.725 48.7763 196.995 48.9113 197.399 49.0463L197.534 49.1813C197.939 49.3163 198.209 49.4513 198.614 49.7213C199.423 50.1263 200.098 50.6664 200.638 51.3414C201.043 51.7464 201.313 52.1514 201.717 52.5564C202.527 53.5015 201.447 54.4465 200.368 53.7715C199.963 53.5015 199.693 53.3665 199.288 53.2315C198.614 52.8264 197.939 52.5564 197.264 52.2864C196.86 52.1514 196.59 52.0164 196.185 51.8814C195.78 51.7464 195.51 51.6114 195.105 51.4764C194.701 51.3414 194.431 51.2064 194.026 51.0714C193.621 50.9364 193.351 50.9364 192.946 50.8014C192.272 50.6664 191.462 50.3963 190.787 50.3963C190.652 50.3963 190.383 50.2613 190.113 50.2613Z" fill="#111111"/>
<path d="M116.589 47.825C115.538 48.3701 114.487 47.5525 115.275 46.5987C115.538 46.1899 115.932 45.7812 116.327 45.3724C116.852 44.8274 117.641 44.2823 118.298 43.7373C119.086 43.3285 119.875 42.9197 120.532 42.6472C120.926 42.511 121.32 42.3747 121.846 42.2385C122.24 42.1022 122.634 42.1022 123.16 42.1022C123.948 41.9659 124.868 41.9659 125.657 42.1022C126.182 42.1022 126.708 42.2384 127.234 42.3747C128.416 42.6472 128.153 44.0098 126.971 44.1461C126.576 44.1461 126.182 44.2823 125.657 44.2823C124.868 44.4186 124.211 44.5548 123.554 44.6911C123.16 44.8274 122.897 44.8274 122.503 44.9636C122.24 45.0999 121.977 45.0999 121.583 45.2361C121.452 45.2361 121.452 45.3724 121.32 45.3724C121.057 45.5087 120.794 45.6449 120.4 45.6449C120.006 45.7812 119.743 45.9174 119.349 46.0537C118.692 46.3262 118.035 46.5988 117.378 47.0075C117.378 47.4163 116.984 47.5525 116.589 47.825Z" fill="#111111"/>
<path d="M178 103C189.557 103 199 93.557 199 82C199 70.4429 189.557 61 178 61C166.443 61 157 70.4429 157 82C157 93.557 166.443 103 178 103Z" fill="white" stroke="#111111" stroke-miterlimit="10"/>
<path d="M139.5 101C151.923 101 162 90.9233 162 78.5C162 66.0767 151.923 56 139.5 56C127.077 56 117 66.0767 117 78.5C117 90.9233 127.077 101 139.5 101Z" fill="white" stroke="#111111" stroke-miterlimit="10"/>
<path d="M182 90C184.143 90 186 88.2857 186 86C186 83.8572 184.286 82 182 82C179.714 82 178 83.7143 178 86C178 88.2857 179.714 90 182 90Z" fill="#111111" stroke="#111111" stroke-width="0.3705" stroke-miterlimit="10"/>
<path d="M143.004 86C145.287 86 147 84.1429 147 82C147 79.7143 145.145 78 143.004 78C140.863 78 139.008 79.8572 139.008 82C138.865 84.2857 140.72 86 143.004 86Z" fill="#111111" stroke="#111111" stroke-width="0.3705" stroke-miterlimit="10"/>
</svg>
