<svg width="391" height="372" viewBox="0 0 391 372" fill="none" xmlns="http://www.w3.org/2000/svg">
<path d="M334.576 257.21H55.5093C24.9683 257.21 0 232.242 0 201.701V55.5093C0 24.9683 24.9683 0 55.5093 0H334.576C365.117 0 390.085 24.9683 390.085 55.5093V201.628C390.085 232.169 365.117 257.21 334.576 257.21Z" fill="#D7DEED"/>
<path d="M281.258 139.094L289.653 141.627L298.266 113.257C297.687 110.579 297.108 107.974 296.529 105.296C295.298 105.441 294.068 105.658 292.838 105.803C291.897 107.467 290.884 109.059 289.943 110.724C286.976 120.132 284.081 129.613 281.258 139.094Z" fill="#FF7A1B"/>
<path d="M309.266 94.9465C309.411 94.9465 309.339 94.8018 309.339 94.8018C309.122 94.8018 309.266 94.9465 309.266 94.9465Z" fill="white"/>
<path d="M305.358 95.1633C305.503 95.3804 306.009 95.0909 306.371 95.1633L306.443 95.2357L306.588 95.0186C306.154 95.0909 305.647 95.2357 305.358 95.1633Z" fill="white"/>
<path d="M304.345 94.6572C304.417 94.7296 304.128 94.7296 304.562 94.6572C304.562 94.6572 304.562 94.6572 304.49 94.6572C304.49 94.6572 304.417 94.6572 304.345 94.6572Z" fill="white"/>
<path d="M307.24 95.1632V95.0908L306.95 95.2356L307.24 95.1632Z" fill="#FF7A1B"/>
<path d="M304.49 94.6572C304.707 94.6572 304.345 94.5848 304.49 94.6572V94.6572Z" fill="white"/>
<path d="M303.621 94.802L303.911 94.7296C303.838 94.6572 303.621 94.6572 303.694 94.6572C303.332 94.6572 303.404 94.7296 303.621 94.802Z" fill="white"/>
<path d="M303.332 94.9464L303.476 94.874C303.476 94.9464 303.404 94.874 303.332 94.9464Z" fill="white"/>
<path d="M303.766 94.874L303.476 94.9464C303.548 94.9464 303.548 95.0188 303.621 94.9464C303.621 94.9464 303.621 94.874 303.766 94.874Z" fill="white"/>
<path d="M303.911 94.8742C304.055 94.9466 304.273 94.9466 303.983 95.0189C304.49 94.9466 304.417 94.8018 303.911 94.8742Z" fill="white"/>
<path d="M305.213 95.4531L305.43 95.5254L305.575 95.4531C305.503 95.4531 305.213 95.3807 305.213 95.4531Z" fill="white"/>
<path d="M301.957 94.8018C301.957 94.8741 302.029 94.9465 302.101 95.0189L302.246 94.9465C302.174 94.8741 301.957 94.8741 301.957 94.8018Z" fill="white"/>
<path d="M302.101 94.9463L301.812 95.0186C302.029 95.091 302.101 95.0187 302.101 94.9463Z" fill="white"/>
<path d="M303.332 95.2357L303.766 95.0186L303.259 95.2357H303.332Z" fill="white"/>
<path d="M300.871 94.8742L301.016 94.7295L300.799 94.9466L300.871 94.8742Z" fill="white"/>
<path d="M300.147 94.9466C300.22 94.8742 300.003 94.8019 300.075 94.7295C299.858 94.7295 299.713 94.8742 299.568 94.9466C299.785 94.8742 299.93 94.8742 300.147 94.9466Z" fill="white"/>
<path d="M299.351 95.0188C299.423 95.0188 299.496 94.9464 299.568 94.874C299.568 94.9464 299.496 95.0188 299.351 95.0188Z" fill="white"/>
<path d="M301.305 95.091C301.305 95.091 301.233 95.0187 301.088 94.9463L301.233 95.091H301.305Z" fill="white"/>
<path d="M302.536 95.1641C302.391 95.2364 302.029 95.3812 302.391 95.4535C302.536 95.3812 302.318 95.3088 302.536 95.1641Z" fill="white"/>
<path d="M301.522 95.2365H301.812C301.812 95.2365 301.74 95.1642 301.812 95.0918L301.522 95.2365Z" fill="white"/>
<path d="M301.377 95.3077L301.522 95.2354H301.377V95.3077Z" fill="white"/>
<path d="M299.93 95.1641C299.785 95.2364 299.64 95.2364 299.496 95.2364C299.64 95.2364 299.857 95.2364 300.002 95.2364C300.002 95.2364 300.075 95.1641 299.93 95.1641Z" fill="white"/>
<path d="M300.002 95.3077C300.147 95.3077 300.22 95.3077 300.292 95.2354C300.22 95.2354 300.075 95.2354 300.002 95.3077Z" fill="white"/>
<path d="M298.917 95.1638C298.989 95.1638 299.062 95.2361 299.134 95.2361C299.134 95.1638 298.917 95.0914 298.917 95.1638Z" fill="white"/>
<path d="M300.437 95.0918C300.364 95.0918 300.364 95.1642 300.292 95.1642C300.364 95.1642 300.437 95.1642 300.437 95.0918C300.509 95.1642 300.509 95.1642 300.437 95.0918Z" fill="white"/>
<path d="M297.469 96.3217C297.469 96.177 297.831 96.0322 298.121 96.177C298.41 96.0322 298.193 95.6703 297.904 95.3809C297.904 95.4532 297.904 95.4532 297.614 95.598C297.686 95.6704 298.265 95.7427 298.048 95.8875C297.686 95.9598 297.686 95.8875 297.542 95.8151C297.686 95.9598 297.035 96.1046 297.18 96.3217L297.542 96.2493C297.542 96.2493 297.397 96.3217 297.469 96.3217Z" fill="#FF7A1B"/>
<path d="M298.483 95.3801H298.628C298.483 95.3801 298.41 95.3077 298.193 95.2354C297.976 95.3077 297.976 95.3801 297.904 95.3801H298.483Z" fill="white"/>
<path d="M299.134 95.3088C299.062 95.4536 298.772 95.5259 298.989 95.6707C299.351 95.6707 299.207 95.5259 299.424 95.4535C298.845 95.5983 299.568 95.3812 299.134 95.3088C299.279 95.3088 299.351 95.3088 299.424 95.2364C299.351 95.2364 299.207 95.2364 299.134 95.1641C299.207 95.3088 299.134 95.3088 299.134 95.3088C298.989 95.3088 299.134 95.3088 299.134 95.3088V95.2364L298.555 95.3812C298.772 95.3812 298.917 95.3088 299.134 95.3088Z" fill="white"/>
<path d="M301.884 95.7426C301.956 95.7426 301.956 95.6703 302.101 95.6703C302.246 95.6703 302.101 95.7426 302.101 95.815C302.173 95.7426 302.391 95.6703 302.101 95.6703H302.029C301.812 95.6703 301.45 95.4531 301.522 95.4531C301.667 95.5255 301.739 95.5979 301.884 95.7426Z" fill="white"/>
<path d="M300.509 95.5977L300.002 95.67L300.292 95.7424V95.67C300.509 95.7424 300.437 95.5977 300.509 95.5977Z" fill="white"/>
<path d="M297.831 95.3088L297.904 95.1641L297.614 95.3812L297.831 95.3088Z" fill="white"/>
<path d="M297.18 95.3801L297.252 95.2354L297.107 95.3077L297.18 95.3801Z" fill="white"/>
<path d="M282.706 93.0649C282.634 92.8478 282.489 92.5583 282.417 92.703V92.8478C282.561 92.9201 282.634 92.9925 282.706 93.0649Z" fill="#FF7A1B"/>
<path d="M273.008 96.6106H273.08C273.08 96.5382 273.153 96.4658 273.153 96.4658C273.08 96.4658 273.008 96.5382 273.008 96.6106Z" fill="#FF7A1B"/>
<path d="M263.6 95.5977V95.8148C263.744 95.67 263.6 95.67 263.6 95.5977Z" fill="#FF7A1B"/>
<path d="M290.883 95.4533C290.739 95.381 290.594 95.381 290.449 95.3086C290.666 95.4533 290.883 95.5981 290.883 95.4533Z" fill="white"/>
<path d="M267.58 91.6896C267.507 91.6172 267.435 91.6172 267.435 91.6172C267.507 91.6896 267.58 91.6896 267.58 91.6896Z" fill="#FF7A1B"/>
<path d="M289.943 95.3083C289.943 95.3083 290.015 95.3083 290.015 95.3806C290.16 95.3806 290.305 95.3806 290.449 95.3806C290.305 95.2359 290.16 95.2359 289.943 95.3083Z" fill="white"/>
<path d="M247.099 98.5658C247.099 98.4934 247.099 98.421 247.171 98.3486C247.099 98.3486 247.099 98.4934 247.099 98.5658Z" fill="white"/>
<path d="M294.72 95.4545C294.867 95.381 294.72 95.381 294.72 95.4545V95.4545Z" fill="white"/>
<path d="M295.371 96.0322L295.298 96.1046C295.371 96.0322 295.371 96.0322 295.371 96.0322Z" fill="white"/>
<path d="M255.06 93.2818C254.915 93.1371 254.987 93.2094 255.06 93.2818V93.2818Z" fill="white"/>
<path d="M279.087 93.8603C279.159 93.6432 279.232 93.5708 279.376 93.5708C279.304 93.4985 279.159 93.3537 279.087 93.209C279.015 93.4261 279.015 93.6432 279.087 93.8603Z" fill="#FF7A1B"/>
<path d="M265.771 93.2816H265.843H265.916H265.988V93.354V93.4264C265.916 93.4988 265.916 93.5711 265.916 93.5711C265.916 93.6435 265.916 93.6435 266.06 93.6435C266.06 93.5711 265.988 93.5711 265.988 93.4988V93.4264V93.354V93.2816C266.06 93.2093 266.06 93.2093 266.06 92.8474L266.133 92.9198V92.9922C266.205 93.0645 266.205 92.9922 266.205 92.775C266.205 92.6303 266.35 92.4856 266.422 92.6303C266.494 92.775 266.422 92.9198 266.422 92.9198C266.494 92.9198 266.494 92.9198 266.567 92.9198C266.567 92.9921 266.494 92.9922 266.494 92.9922C266.567 93.0645 266.567 93.1369 266.639 93.2093C266.712 93.2093 266.712 93.2093 266.784 93.2816C266.856 93.2816 266.929 93.354 266.929 93.4264C266.929 93.5711 266.856 93.354 266.856 93.4264C266.929 93.4988 267.001 93.6435 267.073 93.7159C267.001 93.8606 266.784 93.6435 266.712 93.4264C266.35 93.8606 266.929 93.6435 266.856 94.4396L266.712 94.1501C266.494 94.4396 266.712 94.6567 266.639 95.0909C266.639 95.0186 266.712 94.8014 266.784 94.6567C266.856 94.512 266.929 94.3672 267.073 94.5843C267.073 94.7291 267.073 94.8738 267.218 95.0186C267.073 95.0909 267.146 95.3081 267.291 95.5252L267.073 95.5976C267.218 95.887 267.363 95.8147 267.508 95.9594C267.652 96.3213 267.58 96.466 267.508 96.6108C267.652 96.9002 267.652 96.7555 267.652 96.6108C267.652 96.466 267.652 96.3936 267.942 96.6831C268.159 97.1897 268.593 97.4068 269.245 97.5516C269.534 97.7687 269.1 97.624 269.245 97.7687C269.389 97.7687 269.534 97.7687 269.606 97.6963C269.679 97.6963 269.606 97.7687 269.606 97.7687C269.751 97.7687 269.751 97.6963 269.824 97.6963C269.824 97.624 269.896 97.624 270.113 97.624C270.185 97.5516 270.403 97.624 270.62 97.6963C270.909 97.7687 271.199 97.8411 271.416 97.624C271.561 97.624 271.416 97.7687 271.416 97.8411C271.705 97.6963 271.85 97.624 271.922 97.5516C271.995 97.4792 272.14 97.4068 272.284 97.1897C272.429 97.1897 272.574 97.1897 272.718 97.1897C272.357 97.1897 272.646 96.8279 272.863 96.5384C272.718 96.5384 272.646 96.466 272.574 96.466C272.718 96.3936 272.863 96.2489 273.008 96.1041C273.08 96.1041 273.08 96.1765 273.008 96.3213L273.08 96.2489C273.297 96.2489 273.225 96.3936 273.153 96.5384C273.08 96.5384 273.008 96.5384 272.936 96.5384C272.863 96.6831 272.791 96.9002 272.863 96.9726C272.863 96.9726 272.936 96.9002 273.008 96.8279C273.008 96.9002 273.008 96.9002 273.008 96.9002C273.008 96.9002 273.08 96.8279 273.08 96.7555L273.297 96.9002V96.8279L274.021 96.6831C274.383 96.2489 274.6 95.7423 275.251 95.2357C275.179 95.5252 275.324 95.5252 275.469 95.6699C275.179 95.5976 274.962 96.0318 274.6 96.2489C274.817 96.1765 274.817 96.2489 274.745 96.3213L275.324 95.8147C275.396 95.9594 275.541 95.8147 275.758 95.8147C275.469 95.5975 276.12 95.3081 276.337 95.0909C276.409 95.1633 276.409 95.3081 276.048 95.4528C276.554 95.4528 276.265 94.8015 276.771 94.8015C276.699 94.8738 276.627 94.8738 276.627 94.9462C276.771 94.7291 277.206 94.512 277.206 94.6567L277.133 94.7291C277.423 94.5843 277.785 94.2949 278.074 94.0777C278.364 93.7882 278.581 93.5711 278.508 93.4264L278.653 93.7883C278.725 93.354 278.798 92.9198 279.087 92.4855C279.087 92.6303 279.232 92.775 279.232 92.9922C279.304 93.1369 279.304 93.354 279.16 93.4988C279.232 93.4988 279.377 93.4988 279.521 93.354C279.449 93.354 279.304 92.9922 279.377 92.9922C279.521 93.0645 279.594 93.1369 279.666 93.1369C279.739 93.1369 279.811 93.2093 279.956 93.354C279.883 93.2816 280.028 92.9198 280.245 92.9922C280.173 93.0645 280.173 93.354 280.1 93.354C280.245 93.2816 280.462 93.2093 280.679 93.1369C280.535 93.1369 280.535 93.4264 280.607 93.5711C280.607 93.4987 280.969 93.7883 281.114 93.8606L280.969 93.7159C281.475 94.0777 281.765 93.5711 282.272 93.8606C282.199 93.8606 281.837 94.2225 282.127 94.3672C282.199 94.2948 282.489 94.2225 282.778 94.0777C283.068 94.0054 283.43 93.8606 283.647 93.933L283.719 94.0777L284.153 94.1501C284.009 94.2225 283.647 94.3672 283.285 94.4396C282.923 94.512 282.561 94.5843 282.344 94.5843C282.489 94.8015 282.344 94.7291 282.706 94.8738C282.778 95.0186 282.416 94.9462 282.344 94.8738L283.14 95.3081C283.212 95.091 283.864 95.3804 283.864 95.1633C283.574 95.0909 283.212 95.0909 282.923 95.0186C282.923 94.9462 283.14 94.8015 283.357 94.8015C283.647 94.8015 283.936 94.8015 284.153 94.9462C284.226 95.091 283.864 95.308 283.864 95.3804C283.936 95.3804 284.443 95.4528 284.515 95.5252H284.226C284.515 95.7423 284.877 95.4528 285.166 95.7423C285.311 95.8147 285.456 96.1765 285.528 96.0318C285.384 95.7423 285.601 94.9462 285.818 94.8015C285.818 94.8738 286.469 95.2357 286.542 95.3804C286.686 95.6699 286.107 95.7423 286.252 95.9594C286.252 95.887 286.397 95.887 286.469 95.887C286.614 95.9594 286.397 96.0318 286.686 96.1041C286.759 95.887 287.338 96.2489 286.903 95.9594C287.193 95.9594 287.193 96.1041 287.555 96.1041C287.482 95.9594 287.989 95.6699 288.278 95.6699C288.278 95.7423 288.278 95.8147 288.351 95.8147C289.002 95.887 289.292 96.1041 289.871 96.1765C289.943 96.2489 290.232 96.3213 290.088 96.466C290.16 96.466 290.232 96.3936 290.45 96.3936C290.811 96.6108 290.015 96.3936 290.305 96.6831C290.305 96.5384 290.811 96.5384 291.029 96.466C290.956 96.2489 290.45 96.3936 290.16 96.466C290.16 96.1765 290.667 95.9594 291.246 95.8147C291.752 95.7423 291.463 96.0318 291.535 95.9594C292.404 96.0318 292.331 95.5252 293.055 95.6699C293.344 95.8147 293.055 96.0318 293.127 96.1765C292.766 96.2489 292.548 96.0318 292.259 96.0318L292.621 96.1041C292.476 96.1765 292.259 96.1765 292.114 96.1041C292.404 96.2489 293.634 96.1765 294.358 96.3213C294.502 96.2489 294.72 96.1765 294.575 96.1041H294.358C294.141 95.9594 294.792 95.887 294.502 95.8147C294.792 95.7423 295.154 95.5252 295.516 95.5976L295.588 95.8147C295.588 95.7423 295.299 95.7423 295.226 95.7423C295.371 95.6699 295.878 96.0318 296.022 95.7423L295.733 95.5976C296.022 95.4528 296.384 95.2357 296.746 95.3081C296.601 95.091 296.674 95.3081 296.384 95.0909C296.601 95.3804 295.443 95.0909 295.805 95.4528C295.516 95.1633 295.371 95.3804 295.009 95.0909C295.009 95.1633 295.154 95.2357 294.864 95.1633L294.792 95.2357C294.864 95.2357 294.937 95.3081 294.937 95.3081C294.792 95.4528 294.285 95.4528 294.141 95.5976C293.996 95.5976 294.213 95.5252 294.141 95.4528L293.851 95.5976C293.851 95.4528 293.344 95.3081 293.779 95.2357C293.634 95.2357 293.489 95.2357 293.417 95.2357C293.2 95.1633 292.91 95.0909 292.693 95.1633C292.548 95.1633 292.259 95.3081 292.404 95.2357C292.187 95.2357 291.969 95.3081 291.752 95.3081C291.173 95.2357 290.522 95.4528 289.871 95.1633C289.654 95.1633 289.436 95.2357 289.147 95.0909L289.075 94.9462C288.785 94.9462 288.351 94.7291 288.206 94.8015C287.989 94.4396 287.048 94.512 286.614 94.2948L286.542 94.4396C286.252 94.3672 285.963 94.2948 285.601 94.2948V94.4396C285.456 94.4396 285.239 94.3672 285.022 94.2225C284.805 94.0777 284.587 93.933 284.37 93.8606C284.443 93.7883 284.515 93.8606 284.587 93.933C284.37 93.6435 284.081 93.5711 283.719 93.4988C283.43 93.4264 283.068 93.354 282.923 93.1369C282.778 93.1369 282.706 93.0645 282.633 92.9922C282.633 92.9922 282.633 92.9922 282.561 92.9922C282.489 92.9198 282.489 92.9198 282.416 92.8474C282.416 92.9198 282.489 92.9198 282.489 92.9922C282.416 92.9198 282.272 92.9198 282.054 92.8474V92.7027C281.982 92.5579 281.91 92.7027 281.91 92.8474C281.837 92.8474 281.765 92.8474 281.693 92.8474C281.693 92.5579 281.258 92.7027 281.186 92.3408C281.114 92.3408 280.897 92.2684 280.607 92.2684C280.39 92.1961 280.1 92.1961 280.028 92.3408C280.028 92.3408 279.956 92.2684 280.1 92.2684C279.883 92.1961 279.666 92.1237 279.449 92.1961C279.449 92.1237 279.377 92.0513 279.377 91.979C279.232 92.0513 279.015 92.1961 278.942 92.3408C278.653 92.3408 278.508 92.2684 278.725 92.0513C278.436 92.3408 278.291 92.4132 278.219 92.4855C278.146 92.5579 278.074 92.6303 277.857 92.9198L277.785 92.775C277.64 92.8474 277.495 93.2093 277.35 93.2093C276.916 93.2093 275.686 94.2949 274.745 94.5843C275.107 94.8015 274.238 94.6567 274.383 94.9462C274.311 94.8738 274.094 94.9462 274.238 94.8015C273.804 95.1633 273.515 95.0186 273.297 95.4528C273.225 95.3804 273.297 95.3081 273.297 95.2357C273.297 95.2357 273.225 95.3804 273.153 95.3804C273.08 95.3804 273.153 95.3081 273.225 95.2357C272.791 95.5252 272.863 95.7423 272.936 96.0318C272.646 96.0318 272.501 96.1042 272.429 96.3213C272.284 96.2489 272.139 96.2489 272.429 96.1041C272.357 96.1041 272.067 96.1765 271.85 96.3213C271.633 96.3936 271.416 96.466 271.416 96.6108C271.343 96.6108 271.199 96.6831 271.126 96.6831C270.764 96.7555 270.692 96.7555 270.33 96.7555H270.403C270.258 97.045 270.113 96.8279 269.824 96.8279C269.534 96.6831 269.462 96.6831 269.389 96.6831C269.317 96.6831 269.245 96.6831 269.028 96.3936L268.955 96.5384C268.81 96.6831 268.738 96.5384 268.666 96.3213C268.593 96.1042 268.593 95.887 268.376 95.7423V95.887C268.304 95.8147 268.304 95.5975 268.376 95.4528C268.449 95.2357 268.521 95.091 268.521 94.9462C268.521 94.8738 268.593 95.0186 268.593 95.0186C268.593 94.4396 268.376 95.0186 268.159 94.6567C268.231 94.5843 268.449 94.6567 268.376 94.3672C268.449 94.2225 267.797 93.6435 267.87 93.1369C267.797 93.2817 267.797 93.354 267.652 93.2093C267.652 93.1369 267.58 93.0645 267.58 92.9198C267.58 92.775 267.508 92.6303 267.508 92.4132C267.435 92.1237 267.291 91.7618 267.073 91.6895C267.073 91.6171 267.073 91.6171 267.073 91.5447C267.001 91.4 266.784 91.2552 266.567 91.1105C266.494 91.0381 266.422 90.9657 266.277 90.9657C266.277 90.9657 266.205 90.9657 266.205 90.8934C266.205 90.8934 266.205 90.8934 266.133 90.8934C266.06 90.6039 265.626 91.0381 265.264 91.4C264.902 91.8342 264.685 92.1961 264.468 92.0513L263.889 92.6303V92.5579C263.527 92.9198 263.455 93.0645 263.455 93.2816C263.382 93.354 263.382 93.2816 263.382 93.2093C262.804 93.6435 262.731 93.7159 262.514 94.3672L262.369 94.2948C262.369 94.3672 262.08 94.512 261.863 94.6567C261.573 94.8014 261.284 95.0186 261.067 95.3081V95.2357C260.849 95.5252 260.415 95.5976 260.053 95.5976C259.692 95.5976 259.474 95.5975 259.33 95.887C259.257 95.887 259.185 95.9594 259.113 95.9594C259.04 95.9594 258.968 95.9594 258.895 96.0318C259.185 96.1042 259.185 96.1765 259.04 96.2489C258.968 96.3213 258.823 96.3936 258.968 96.466C258.823 96.466 258.678 96.3936 258.606 96.3213C258.534 96.2489 258.534 96.1765 258.678 96.1765L258.751 96.2489C258.823 96.1041 258.678 96.0318 258.461 95.9594C258.389 95.887 258.316 95.887 258.172 95.8147C258.027 95.7423 258.099 95.7423 258.099 95.6699C257.593 95.3804 257.086 94.9462 256.724 94.512C256.362 94.0777 256.073 93.5711 255.783 92.9922L255.639 93.2093C255.566 93.0645 255.494 92.9198 255.494 92.8474C255.494 92.7027 255.566 92.6303 255.711 92.9198C255.783 92.7027 255.349 92.4855 255.349 92.5579C255.204 91.9789 255.711 92.6303 255.639 92.4855L255.494 92.2684V92.3408C255.349 92.1961 255.204 92.2684 255.06 91.9066C254.987 91.6895 255.132 91.7618 255.132 91.6171C255.132 91.6171 255.132 91.5447 255.06 91.4723L254.843 90.9657L254.77 91.2552C254.553 91.1105 254.553 90.7486 254.481 91.1105C254.553 90.8934 254.336 90.3868 254.119 89.8802C254.047 89.8078 253.974 89.6631 253.902 89.5183C253.902 89.4459 253.829 89.4459 253.829 89.3736C253.757 89.3012 253.757 89.2288 253.685 89.2288C253.54 89.0117 253.395 88.867 253.323 88.7946C253.106 88.7222 252.961 88.5775 252.744 88.5051C252.527 88.4327 252.31 88.3604 252.02 88.3604C252.092 88.3604 252.165 88.4327 252.092 88.5051C252.092 88.5775 252.02 88.5775 251.803 88.6498C251.803 88.3603 251.658 88.4327 251.369 88.5775C251.152 88.7222 250.935 89.0117 250.717 89.0841C250.862 89.0117 250.717 89.3736 250.573 89.663C250.5 89.8802 250.428 90.0973 250.645 90.0249C250.5 90.3144 250.5 89.9525 250.283 90.0973C250.138 90.821 249.415 91.4723 249.125 92.3408C249.198 92.3408 249.342 92.2684 249.342 92.4855L248.908 92.775C248.836 92.9198 249.125 93.0645 248.836 93.2816C248.908 93.2816 248.98 93.2093 248.98 93.354C247.967 94.8738 247.823 96.7555 246.809 98.3477C246.954 98.1306 246.954 98.2753 246.882 98.4924C246.954 98.4201 247.026 98.5648 247.099 98.5648L246.665 99.2162C246.809 99.4333 246.447 100.012 246.665 100.157V99.9399C246.809 100.302 247.316 99.6504 247.605 99.7951C247.461 99.3609 248.257 98.999 248.04 98.3477C248.112 98.2753 248.112 98.4924 248.184 98.4201C248.112 98.2753 248.112 98.0582 248.257 97.7687V97.8411C248.546 96.9726 248.763 96.6107 249.198 95.7423H249.053C249.125 95.5252 249.198 95.5252 249.27 95.4528C249.125 95.0909 249.053 96.0318 248.836 95.7423C249.27 95.5975 249.415 94.2949 249.849 94.2225C249.994 93.933 249.632 94.2225 249.777 93.933L249.921 93.8606L249.849 93.7159C249.921 93.4988 250.138 93.4988 250.211 93.4988C250.211 93.5711 250.138 93.6435 250.138 93.7159C250.356 93.4988 250.428 92.9921 250.5 92.9198L250.283 93.2093C250.573 92.3408 251.224 91.4 251.441 90.4591H251.369C251.441 90.3144 251.441 90.1696 251.513 90.0973C251.513 90.0249 251.586 90.0249 251.586 90.0249C251.658 89.9525 251.731 89.9525 251.803 89.7354C251.803 89.5907 251.875 89.4459 252.02 89.4459C251.948 89.5183 252.02 89.5183 252.092 89.5907C252.165 89.663 252.165 89.7354 252.092 89.7354C252.237 89.663 252.31 89.663 252.382 89.663C252.454 89.663 252.454 89.5907 252.671 89.5183C252.671 89.5907 252.671 89.663 252.671 89.663C252.816 89.663 252.816 89.5907 253.033 89.8078C252.961 89.7354 252.961 89.8078 252.889 89.8802C252.889 89.9525 252.816 90.0249 252.744 89.9525C252.744 90.0249 252.744 90.0249 252.744 90.0973C252.744 90.1696 252.816 90.242 252.816 90.3144C252.889 90.4591 252.961 90.5315 253.033 90.6039C253.178 90.7486 253.323 90.9657 253.178 91.1829C253.612 91.3276 253.033 90.4591 253.178 90.6762C253.178 90.4591 253.54 90.821 253.612 91.0381C253.685 91.2552 253.395 91.6171 253.685 92.1961C253.685 92.1237 253.612 92.1237 253.612 92.1237C253.612 92.4132 253.902 92.4855 253.902 92.8474C254.191 92.9198 254.046 93.2093 254.336 93.1369L254.047 92.6303C254.264 92.9198 254.698 93.0645 254.77 93.5711C254.698 93.5711 254.553 93.4264 254.481 93.354C254.481 93.4988 254.698 93.6435 254.698 93.7883C254.408 93.8606 254.264 93.1369 253.974 92.9198C253.974 93.1369 254.481 93.4264 254.119 93.4264C254.553 93.4988 254.408 94.0777 254.843 94.2948L254.698 94.3672C254.77 94.4396 254.915 94.512 254.987 94.6567L254.698 94.5843C255.06 94.8015 254.987 95.3081 255.349 95.5252C254.843 94.8738 255.349 95.2357 255.277 94.9462C255.639 95.2357 255.639 95.3804 255.711 95.5976C255.711 95.8147 255.711 96.0318 256.218 96.3936C256.073 96.3213 255.856 95.9594 256.073 96.0318C256.218 96.1765 256.362 96.3936 256.435 96.5384C257.086 96.9726 256.435 96.3213 256.797 96.466C256.869 96.7555 257.159 96.6108 257.448 96.6831L257.376 96.8279C257.737 97.045 257.81 96.9726 257.882 96.9726C257.955 96.9002 258.027 96.9002 258.316 97.045C258.172 97.1174 258.027 97.1174 257.955 97.1174C258.099 97.1174 258.244 97.1897 258.389 97.1897L258.244 97.3345C258.751 97.3345 258.895 97.3345 259.33 97.4068C259.257 97.2621 259.402 97.1174 259.764 97.045C260.053 97.1174 259.619 97.1897 260.198 97.1174C260.126 97.2621 259.981 97.4068 259.692 97.2621C259.692 97.3345 259.547 97.3345 259.547 97.4068C259.909 97.4792 260.343 97.3345 260.488 97.2621C260.415 97.2621 260.343 97.2621 260.27 97.2621C260.56 97.1174 260.777 96.9726 260.994 96.7555C261.139 96.7555 261.067 96.8279 260.994 96.9002C261.139 96.8279 261.211 96.6831 261.428 96.5384C261.428 96.6831 261.501 96.8279 261.284 96.9726C261.501 96.8279 261.718 96.6107 261.863 96.466C261.935 96.466 262.297 96.3936 262.225 96.466C262.586 96.3213 262.876 95.6699 263.238 95.3804C263.238 95.3804 263.238 95.3081 263.31 95.2357C263.672 94.9462 264.034 94.8014 264.251 94.2948L264.613 94.2225C264.902 93.8606 264.106 94.2949 264.54 93.7883C264.83 93.4264 264.83 93.7882 264.975 93.7159C265.047 93.5711 265.047 93.4264 265.192 93.2093C265.264 93.1369 265.264 93.0645 265.337 92.9922C265.409 92.9198 265.409 92.9198 265.409 92.9198H265.481C265.843 93.2093 265.843 93.1369 265.771 93.2816ZM267.073 94.512C267.001 94.4396 266.856 94.2949 266.929 94.1501C267.146 94.2225 267.073 94.3672 267.073 94.512ZM273.804 96.5384C273.732 96.6107 273.659 96.6108 273.515 96.6108C273.587 96.6108 273.659 96.6107 273.804 96.5384ZM293.272 95.5976C293.055 95.5252 293.127 95.5252 293.272 95.5976V95.5976ZM293.779 95.6699C293.851 95.6699 293.851 95.5976 293.779 95.5976C293.779 95.6699 293.634 95.6699 293.562 95.5976C293.562 95.6699 293.562 95.6699 293.779 95.6699ZM255.422 91.5447V91.6171C255.277 91.4723 255.349 91.4723 255.422 91.5447Z" fill="#FF7A1B"/>
<path d="M273.08 97.1173C273.08 97.1173 273.008 97.1173 273.008 97.0449C273.008 97.1173 273.008 97.1173 273.08 97.1173Z" fill="white"/>
<path d="M286.614 96.2492C286.541 96.1769 286.469 96.1769 286.469 96.1045C286.469 96.1769 286.469 96.1769 286.614 96.2492Z" fill="#FF7A1B"/>
<path d="M296.095 95.3086L295.805 95.3809C295.95 95.3809 295.95 95.381 296.095 95.4533C296.022 95.381 295.95 95.3086 296.095 95.3086Z" fill="#FF7A1B"/>
<path d="M298.627 96.1766C298.7 96.1766 298.7 96.1766 298.772 96.1766V96.1042C298.555 96.0318 298.41 96.1042 298.627 96.1766Z" fill="white"/>
<path d="M296.384 95.8146C296.384 95.9593 296.601 95.8869 296.818 95.8869C296.818 95.6698 296.601 95.7422 296.384 95.8146Z" fill="#FF7A1B"/>
<path d="M296.818 95.8873C296.891 95.8873 296.963 95.8873 296.963 95.8873C297.035 95.7425 296.891 95.8149 296.818 95.8873Z" fill="white"/>
<path d="M294.285 95.5253C294.358 95.5253 294.358 95.3806 294.358 95.3806C294.502 95.2358 293.779 95.6701 294.285 95.5253Z" fill="#FF7A1B"/>
<path d="M296.601 96.2492L296.456 96.1045L296.384 96.2492H296.601Z" fill="#FF7A1B"/>
<path d="M294.937 96.1769H295.298C295.298 96.1769 295.298 96.1045 295.371 96.1045C295.154 96.1769 294.937 96.1769 294.937 96.1769Z" fill="#FF7A1B"/>
<path d="M296.167 96.3937L296.022 96.3213H295.805L296.167 96.3937Z" fill="#FF7A1B"/>
<path d="M291.463 96.1768H291.101C291.028 96.2491 291.173 96.2491 291.246 96.2491C291.39 96.2491 291.535 96.1768 291.463 96.1768Z" fill="#FF7A1B"/>
<path d="M292.548 96.6838C292.476 96.6838 292.476 96.6114 292.403 96.5391V96.7562L292.548 96.6838Z" fill="#FF7A1B"/>
<path d="M291.463 96.6836C291.463 96.756 290.956 96.8283 291.39 96.8283C291.463 96.756 291.824 96.6836 291.463 96.6836Z" fill="#FF7A1B"/>
<path d="M286.252 95.5972H286.324L286.397 95.2354L286.252 95.5972Z" fill="#FF7A1B"/>
<path d="M281.548 94.3674C281.91 94.6569 281.765 94.2227 282.054 94.5122C282.199 94.5122 281.837 94.295 281.982 94.295C281.62 94.2227 281.548 94.1503 281.548 94.3674Z" fill="#FF7A1B"/>
<path d="M246.592 99.5059L246.447 99.723L246.592 99.5782V99.5059Z" fill="white"/>
<path d="M246.737 100.085H246.52L246.664 100.302C246.664 100.23 246.664 100.085 246.737 100.085Z" fill="white"/>
<path d="M266.856 95.4535C266.929 95.3812 266.929 95.3088 266.856 95.1641V95.4535Z" fill="#FF7A1B"/>
<path d="M266.277 93.1372C266.277 93.0648 266.35 92.9924 266.35 92.8477C266.35 92.92 266.35 92.9924 266.277 93.1372Z" fill="#FF7A1B"/>
<path d="M265.409 94.2231C265.481 94.1507 265.554 94.006 265.698 93.9336C265.481 94.1507 265.192 94.0784 265.409 94.2231Z" fill="#FF7A1B"/>
<path d="M206.544 154.653C207.34 156.1 208.715 158.127 211.031 159.719C212.478 160.732 219.643 165.364 236.361 158.489C262.994 147.416 269.073 126.5 282.535 128.816C286.732 129.54 291.436 132.507 292.811 136.705C297.588 150.6 264.731 173.904 246.928 184.181C231.802 192.865 218.051 197.497 208.932 200.103" fill="white"/>
<path d="M206.544 154.653C207.34 156.1 208.715 158.127 211.031 159.719C212.478 160.732 219.643 165.364 236.361 158.489C262.994 147.416 269.073 126.5 282.535 128.816C286.732 129.54 291.436 132.507 292.811 136.705C297.588 150.6 264.731 173.904 246.928 184.181C231.802 192.865 218.051 197.497 208.932 200.103" stroke="#111111" stroke-miterlimit="10"/>
<path d="M119.408 183.023C117.454 182.878 114.559 182.588 111.085 182.516C106.526 182.444 102.328 182.299 99.361 182.805C89.2289 184.687 83.1496 195.398 81.5575 198.148C76.998 205.964 75.2611 214.504 75.3335 220.511C75.4058 226.446 73.8137 235.782 71.1359 239.038C68.6752 242.078 63.8263 242.223 63.1026 242.15C59.1945 241.571 56.2996 240.848 54.0561 238.966C54.0561 238.966 52.7534 237.808 51.8126 236.216C50.0757 233.321 45.082 219.136 53.4048 195.615C56.372 187.22 62.6684 173.252 76.1296 159.067" fill="white"/>
<path d="M119.408 183.023C117.454 182.878 114.559 182.588 111.085 182.516C106.526 182.444 102.328 182.299 99.361 182.805C89.2289 184.687 83.1496 195.398 81.5575 198.148C76.998 205.964 75.2611 214.504 75.3335 220.511C75.4058 226.446 73.8137 235.782 71.1359 239.038C68.6752 242.078 63.8263 242.223 63.1026 242.15C59.1945 241.571 56.2996 240.848 54.0561 238.966C54.0561 238.966 52.7534 237.808 51.8126 236.216C50.0757 233.321 45.082 219.136 53.4048 195.615C56.372 187.22 62.6684 173.252 76.1296 159.067" stroke="#111111" stroke-miterlimit="10" stroke-linecap="round" stroke-linejoin="round"/>
<path d="M107.394 132.506C99.6503 132.361 93.9329 137.789 94.2224 144.664C94.5119 151.54 99.9398 154.652 107.973 154.434C116.006 154.217 120.132 150.599 120.349 144.447C120.566 138.296 115.355 132.651 107.394 132.506Z" fill="#EF7D00" stroke="#111111" stroke-miterlimit="10"/>
<path d="M106.091 139.237C93.788 131.927 77.5043 127.44 61.9443 129.25" stroke="#111111" stroke-miterlimit="22.9256" stroke-linecap="round" stroke-linejoin="round"/>
<path d="M102.979 141.915C97.6961 139.599 75.9122 133.954 57.6021 141.408" stroke="#111111" stroke-miterlimit="22.9256" stroke-linecap="round" stroke-linejoin="round"/>
<path d="M102.617 147.198C94.2223 144.665 80.1821 145.027 71.208 150.02" stroke="#111111" stroke-miterlimit="22.9256" stroke-linecap="round" stroke-linejoin="round"/>
<path d="M221.09 129.756C228.544 130.625 233.249 136.704 232.018 143.217C230.788 149.731 225.143 151.974 217.472 150.672C209.8 149.369 206.326 145.244 206.905 139.382C207.557 133.519 213.419 128.815 221.09 129.756Z" fill="#EF7D00" stroke="#111111" stroke-miterlimit="10"/>
<path d="M221.379 136.414C234.262 131.058 250.473 129.032 265.164 132.868" stroke="#111111" stroke-miterlimit="22.9256" stroke-linecap="round" stroke-linejoin="round"/>
<path d="M223.985 139.454C229.413 137.934 251.124 135.546 267.698 145.244" stroke="#111111" stroke-miterlimit="22.9256" stroke-linecap="round" stroke-linejoin="round"/>
<path d="M223.623 144.52C232.018 143.218 245.479 145.533 253.368 151.54" stroke="#111111" stroke-miterlimit="22.9256" stroke-linecap="round" stroke-linejoin="round"/>
<path d="M181.503 61.3651C187.221 53.766 195.688 42.8379 201.333 36.9033C204.445 33.6466 205.603 29.6661 207.702 30.3899C222.249 35.3835 231.657 77.8659 235.637 93.7154C244.177 127.658 249.75 156.968 249.243 195.036C248.737 232.163 247 275.948 232.308 311.845C233.104 324.872 237.302 351.432 230.427 361.781C223.551 372.13 213.057 373.723 203.36 366.775C193.662 359.755 194.458 339.491 191.925 329.865C189.392 320.167 132.942 325.306 121.796 320.963C122.158 328.707 119.263 339.635 116.151 345.353C111.881 353.024 110.579 357.945 103.269 360.84C94.8739 364.169 87.0578 363.301 80.689 355.991C71.2807 345.208 78.8073 318.937 81.6299 305.838C81.7746 305.186 82.1365 303.522 81.9917 302.219C80.7614 296.864 77.2875 282.968 76.202 278.553C60.642 216.386 68.9648 162.324 72.2215 100.301C64.9119 84.8136 65.4909 66.4311 68.82 49.9303C83.5115 49.2066 96.828 53.9108 107.611 63.8981C119.553 61.7993 131.567 60.569 143.725 60.0624C156.173 59.411 168.766 60.3519 181.503 61.3651Z" fill="white" stroke="#111111" stroke-miterlimit="10"/>
<path d="M145.969 300.989C152.41 295.923 126.066 258.579 135.185 250.256C138.08 247.578 144.811 247.144 148.646 249.605C150.962 251.052 151.614 253.079 155.956 256.046C158.2 257.566 159.357 258.362 160.877 258.651C165.22 259.375 170.575 255.974 172.095 251.921C175.279 243.67 162.397 233.683 161.601 233.104C159.936 231.874 149.37 224.058 136.343 227.604C135.113 227.966 126.211 230.426 120.638 238.677C111.302 252.21 113.039 271.534 121.724 284.633C129.106 295.633 142.35 303.884 145.969 300.989Z" fill="white" stroke="#111111" stroke-miterlimit="10"/>
<path d="M151.758 311.41C160.392 311.41 167.391 304.411 167.391 295.778C167.391 287.144 160.392 280.146 151.758 280.146C143.125 280.146 136.126 287.144 136.126 295.778C136.126 304.411 143.125 311.41 151.758 311.41Z" fill="white"/>
</svg>
