<svg width="8" height="8" viewBox="0 0 8 8" fill="none" xmlns="http://www.w3.org/2000/svg">
<path d="M3.69363 4.00079L0.86083 6.85349C0.78213 6.93274 0.78213 7.06114 0.86083 7.14039C0.90013 7.18007 0.95173 7.1998 1.00323 7.1998C1.05483 7.1998 1.10633 7.18007 1.14563 7.14039L3.99973 4.26624L6.85383 7.14039C6.89323 7.18007 6.94473 7.1998 6.99623 7.1998C7.04773 7.1998 7.09933 7.18007 7.13863 7.14039C7.21733 7.06114 7.21733 6.93274 7.13863 6.85349L4.30593 4.00079L7.14053 1.14607C7.21923 1.06682 7.21923 0.938422 7.14053 0.859169C7.06183 0.780017 6.93433 0.780017 6.85573 0.859169L3.99983 3.73533L1.14363 0.85927C1.06493 0.780117 0.93753 0.780117 0.85883 0.85927C0.78013 0.938522 0.78013 1.06692 0.85883 1.14617L3.69363 4.00079Z" fill="#FF7A1B"/>
</svg>
