<svg width="31" height="35" viewBox="0 0 31 35" fill="none" xmlns="http://www.w3.org/2000/svg">
<path d="M30.9681 8.96481C30.9608 8.93902 30.9471 8.91691 30.938 8.89112C30.9218 8.84068 30.9014 8.79162 30.8769 8.74464C30.8614 8.71884 30.8404 8.69766 30.8231 8.67278C30.7959 8.6311 30.7653 8.59171 30.7319 8.55486C30.7119 8.5346 30.6864 8.51986 30.6645 8.50143C30.6286 8.46735 30.5898 8.4366 30.5487 8.40931H30.5396L15.9513 0.118149C15.6739 -0.039383 15.3352 -0.039383 15.0578 0.118149L0.469559 8.40931H0.460441C0.419298 8.4366 0.380548 8.46735 0.344647 8.50143C0.322765 8.51986 0.297235 8.5346 0.277176 8.55486C0.243783 8.59171 0.213239 8.6311 0.186 8.67278C0.168677 8.69766 0.147706 8.71884 0.132206 8.74464C0.107703 8.79162 0.0873015 8.84056 0.0711177 8.89112C0.0620001 8.91691 0.0483236 8.93902 0.0410295 8.96481C0.0167537 9.04312 0.00296324 9.12419 0 9.20618V25.5517C0.000341912 25.8805 0.174033 26.1842 0.455882 26.3486L15.0441 34.8765C15.0989 34.9066 15.1566 34.9306 15.2164 34.9484C15.2338 34.9539 15.2493 34.964 15.2657 34.9686C15.4192 35.0104 15.5808 35.0104 15.7343 34.9686C15.7507 34.964 15.7662 34.9539 15.7836 34.9484C15.8434 34.9306 15.9011 34.9066 15.9559 34.8765L30.5441 26.3486C30.826 26.1842 30.9997 25.8805 31 25.5517V9.20618C31 9.12465 30.9893 9.04347 30.9681 8.96481ZM15.5 1.97168L20.5293 4.82753L7.80106 12.062L2.77177 9.20618L15.5 1.97168ZM14.5882 32.4831L1.82353 25.0211V10.7815L14.5882 18.0363V32.4831ZM15.5 16.4407L9.66471 13.1214L22.3884 5.88972L28.2282 9.20618L15.5 16.4407ZM29.1765 25.0202L16.4118 32.4822V18.0363L29.1765 10.7815V25.0202Z" fill="#C4C4C4"/>
</svg>
