<svg width="22" height="22" viewBox="0 0 22 22" fill="none" xmlns="http://www.w3.org/2000/svg">
<path d="M6.81708 12.9265L6.52319 13.331L6.81708 12.9265L1.12616 8.7918H8.16052C8.46378 8.7918 8.73255 8.59653 8.82626 8.3081L11 1.61804L13.1737 8.30811L13.6188 8.1635L13.1737 8.30811C13.2675 8.59652 13.5362 8.7918 13.8395 8.7918H20.8738L15.1829 12.9265C14.9376 13.1047 14.8349 13.4207 14.9286 13.7091L17.1024 20.3992L11.4114 16.2645C11.1661 16.0862 10.8339 16.0862 10.5885 16.2645L4.89763 20.3992L7.07137 13.7091C7.16508 13.4207 7.06242 13.1047 6.81708 12.9265Z" stroke="#FFD708"/>
</svg>
