<svg xmlns="http://www.w3.org/2000/svg" width="131" height="120" viewBox="0 0 131 120">
  <path style="fill: #c0d524; fill-rule: evenodd;" d="M66.078,6.348c16.028-.054,30.743-12.311,42.048-2.617a65.54,65.54,0,0,1,22.835,50.161c-0.121,36.365-29.34,65.942-65.262,66.066S0.754,90.7.875,54.337A66.514,66.514,0,0,1,23.669,4.344C35.09-5.62,49.872,6.4,66.078,6.348Z"/>
  <path style="fill: #fff; fill-rule: evenodd;" d="M80.888,65.105c0.454-1.45.911-2.859,1.333-4.276,0.283-.949.5-1.918,0.776-2.869,0.423-1.44.89-2.869,1.311-4.31,0.294-1.008.526-2.035,0.816-3.044,0.283-.985.619-1.954,0.9-2.938,0.259-.9.422-1.826,0.734-2.7a2.687,2.687,0,0,1,1.731-1.677,2.358,2.358,0,0,1,2.183.257c1.328,0.816,1.477,1.8,1.184,3.174-0.282,1.325-.713,2.619-1.088,3.925-0.455,1.585-.923,3.165-1.38,4.75-0.35,1.214-.691,2.43-1.041,3.643-0.458,1.585-.911,3.172-1.385,4.753-0.4,1.331-.894,2.64-1.21,3.988a3.691,3.691,0,0,1-.932,1.988,2.677,2.677,0,0,1-1.894.779q-13.43.007-26.86,0a2.7,2.7,0,0,1-2.542-1.8c-0.232-.981-0.456-1.965-0.693-2.945-0.325-1.343-.68-2.679-0.985-4.026-0.273-1.206-.476-2.426-0.745-3.633-0.3-1.343-.653-2.674-0.956-4.016-0.275-1.22-.5-2.451-0.772-3.671-0.183-.823-0.428-1.632-0.611-2.454-0.272-1.221-.5-2.452-0.773-3.673-0.107-.48-0.274-0.948-0.422-1.454-1.737,0-3.484.019-5.23-.005a2.353,2.353,0,0,1-2.306-2.822A2.313,2.313,0,0,1,42.566,38H48.1c0.6,0,1.2.048,1.8-.01a2.746,2.746,0,0,1,2.623,2.189,18.853,18.853,0,0,0,.554,2.349c0.172,0.774.293,1.558,0.467,2.332,0.182,0.8.42,1.6,0.6,2.4,0.275,1.239.506,2.486,0.784,3.725,0.3,1.331.642,2.65,0.941,3.98,0.279,1.238.51,2.488,0.789,3.727,0.185,0.82.44,1.626,0.624,2.447,0.269,1.2.5,2.414,0.764,3.616a0.835,0.835,0,0,0,.342.346,0.457,0.457,0,0,0,.226.007H80.888ZM70.532,45.71c3.957,0,5.834.039,9.79-.023A2.381,2.381,0,0,1,82.6,48.435a2.247,2.247,0,0,1-2.536,2.037c-7.8,0-11.437-.019-19.236.021a2.667,2.667,0,0,1-2.394-1.838,2.216,2.216,0,0,1,1.235-2.61,2.841,2.841,0,0,1,1.125-.322C64.737,45.7,66.594,45.71,70.532,45.71ZM70.436,56.6c-3.381,0-4.683-.014-8.064.009a2.281,2.281,0,0,1-2.094-1.468,1.976,1.976,0,0,1,.244-2.162,2.722,2.722,0,0,1,2.3-1.158c6.532,0.033,8.9.031,15.437,0.006a2.557,2.557,0,0,1,2.578,2.411,2.432,2.432,0,0,1-2.279,2.38C75.157,56.568,73.836,56.6,70.436,56.6ZM70.02,62.949c-2.686,0-3.29,0-5.976,0a2.49,2.49,0,1,1-.111-4.976c5.553-.028,6.947-0.04,12.5,0a2.485,2.485,0,0,1,2.572,2.939A2.676,2.676,0,0,1,76.628,62.9a5.054,5.054,0,0,1-.79.041c-2.633,0-3.185,0-5.818,0v0ZM65.986,77.519a5.509,5.509,0,0,1-11.018,0A5.509,5.509,0,0,1,65.986,77.519Zm16.95,0c0.227,3.2-2.731,5.539-5.55,5.481a5.475,5.475,0,0,1,.107-10.95A5.331,5.331,0,0,1,82.936,77.522Z"/>
</svg>