<svg xmlns="http://www.w3.org/2000/svg" width="131" height="120" viewBox="0 0 131 120">
  <path style="fill: #c0d524; fill-rule: evenodd;" d="M66.078,6.348C82.1,6.294,96.818-5.963,108.122,3.731a65.544,65.544,0,0,1,22.832,50.161c-0.121,36.365-29.336,65.942-65.255,66.066S0.761,90.7.882,54.337A66.517,66.517,0,0,1,23.673,4.344C35.093-5.62,49.874,6.4,66.078,6.348Z"/>
  <path style="fill: #fff; fill-rule: evenodd;" d="M69.218,81.3a23.815,23.815,0,0,0,8.827-1.6,18.489,18.489,0,0,0,6.872-4.631l-2.871-2.845A16.88,16.88,0,0,1,69.4,77.3,18.708,18.708,0,0,1,60.177,75a16.88,16.88,0,0,1-6.506-6.3,18.241,18.241,0,0,1,0-17.918,16.886,16.886,0,0,1,6.506-6.3,18.717,18.717,0,0,1,9.224-2.3,17.115,17.115,0,0,1,12.645,5.024l2.871-2.845a18.254,18.254,0,0,0-6.841-4.6,23.991,23.991,0,0,0-8.8-1.574,23.686,23.686,0,0,0-11.484,2.785A20.438,20.438,0,0,0,49.762,48.7a22.483,22.483,0,0,0,0,22.1,20.476,20.476,0,0,0,8,7.718A23.5,23.5,0,0,0,69.218,81.3h0Z"/>
  <rect style="fill: #fff" x="59.563" y="33.031" width="5.063" height="52.938"/>
  <rect style="fill: #fff" x="69.719" y="33.031" width="5.063" height="52.938"/>
</svg>