<svg xmlns="http://www.w3.org/2000/svg" width="130" height="120" viewBox="0 0 130 120">
  <path style="fill: #c0d524; fill-rule: evenodd;" class="cls-1" d="M65.172,6.35C81.19,6.3,95.9-5.965,107.194,3.732a65.591,65.591,0,0,1,22.821,50.179C129.9,90.289,100.693,119.877,64.793,120S-0.113,90.736.008,54.356A66.565,66.565,0,0,1,22.788,4.345C34.2-5.622,48.975,6.4,65.172,6.35Z"/>
  <path style="fill: #fff; fill-rule: evenodd;" d="M81.744,70.333c0,1.047.029,2.05-.006,3.049a4.469,4.469,0,0,1-1.87,3.787,2.813,2.813,0,0,1-1.708.564,4.812,4.812,0,0,1-2.023-.284,4.039,4.039,0,0,1-2.155-2.319,4.708,4.708,0,0,1-.241-1.89c0.011-.164,0-0.33,0-0.574a4.9,4.9,0,0,1-5.866-.188c-0.007.169-.018,0.295-0.018,0.421,0,1.3.013,2.609-.007,3.913a11.487,11.487,0,0,1-.14,1.748,4.133,4.133,0,0,1-.942,1.968,3.79,3.79,0,0,1-1.622,1.2,3.888,3.888,0,0,1-2.307.174,4.154,4.154,0,0,1-2.7-2.026,3.768,3.768,0,0,1-.559-1.927q-0.011-3.586,0-7.175c0-.352-0.1-0.445-0.425-0.445-6.36.011-12.721,0.027-19.081-.006A3.92,3.92,0,0,1,36.839,68.6a4.372,4.372,0,0,1-.8-3.3,10.805,10.805,0,0,1,.67-2.379c0.378-.995.753-1.991,1.169-2.966,0.315-.738.68-1.452,1.048-2.163s0.739-1.442,1.17-2.118c0.8-1.262,1.592-2.542,2.5-3.721A29.2,29.2,0,0,1,46.4,47.709c0.888-.781,1.731-1.621,2.641-2.37,0.974-.8,1.981-1.565,3.017-2.274,0.88-.6,1.813-1.125,2.737-1.653,0.887-.505,1.784-0.991,2.693-1.447,0.647-.324,1.317-0.6,1.988-0.867,0.919-.367,1.837-0.746,2.779-1.036a2.89,2.89,0,0,1,1.281-.018,5.982,5.982,0,0,1,2.325,1.237,2.486,2.486,0,0,1,.428.542,4.613,4.613,0,0,1,.547.7,7.038,7.038,0,0,1,.778,1.658,10.425,10.425,0,0,1,.244,1.854,0.2,0.2,0,0,1,0,.072,1.053,1.053,0,0,0,.65,1.313c0.668,0.5,1.3,1.058,1.955,1.583,0.764,0.612,1.536,1.216,2.3,1.826,0.662,0.526,1.32,1.06,1.983,1.586,0.909,0.72,1.823,1.434,2.732,2.156,0.828,0.657,1.652,1.323,2.48,1.981,1.519,1.208,3.045,2.408,4.559,3.623,0.867,0.695,1.712,1.422,2.579,2.117,0.405,0.327.85,0.6,1.257,0.92,0.483,0.384.941,0.8,1.417,1.2,0.16,0.132.356,0.218,0.518,0.349,0.575,0.464,1.14.944,1.716,1.407,0.434,0.351.883,0.679,1.318,1.028,0.409,0.328.817,0.662,1.21,1.011a1.375,1.375,0,0,1,.476,1.138,10.75,10.75,0,0,1-.151,1.664,1.778,1.778,0,0,1-.881,1.251,0.949,0.949,0,0,1-.425.072q-5.591,0-11.182,0H81.744ZM47.215,65.619h0.272c4.377,0,8.754.013,13.131,0A1.339,1.339,0,0,1,61.852,66.9c-0.03,3.586-.018,7.174-0.01,10.761a2.05,2.05,0,0,0,.516,1.35,1.853,1.853,0,0,0,3.166-1.3c0.029-2.838,0-5.677.02-8.516a2.962,2.962,0,0,1,.2-0.926,1.085,1.085,0,0,1,.978-0.676,1.348,1.348,0,0,1,1.044.738,4.805,4.805,0,0,0,1.42,2.107,2.682,2.682,0,0,0,3.194.229,4.4,4.4,0,0,0,1.359-1.482,1.205,1.205,0,0,1,1.151-.786A1.244,1.244,0,0,1,76,69.735c0.007,1.207.013,2.415,0,3.623a2.485,2.485,0,0,0,.42,1.42,1.7,1.7,0,0,0,2.385.255,2.234,2.234,0,0,0,.615-1.721c0.019-2.053.007-4.107,0.007-6.16a1.258,1.258,0,0,1,1.241-1.328c3.088,0.04,6.178.017,9.267,0.017h0.4c-0.112-.094-0.194-0.163-0.277-0.23-0.461-.383-0.915-0.773-1.385-1.143-0.613-.483-1.244-0.94-1.856-1.426-0.483-.383-0.941-0.8-1.424-1.181-0.612-.484-1.245-0.94-1.856-1.425-0.483-.383-0.94-0.8-1.424-1.184-0.6-.477-1.23-0.921-1.833-1.4-0.776-.615-1.532-1.259-2.307-1.876-1.224-.974-2.458-1.933-3.685-2.9-1.193-.942-2.386-1.882-3.573-2.834Q68.65,48.6,66.61,46.93a0.5,0.5,0,0,0-.59-0.081c-0.569.276-1.145,0.537-1.708,0.827-1.005.52-2.03,1.006-2.994,1.6-1.06.655-2.063,1.412-3.085,2.134A30.76,30.76,0,0,0,55.2,53.963,26.827,26.827,0,0,0,51.961,57.5c-0.6.792-1.213,1.579-1.763,2.41a29.455,29.455,0,0,0-2.418,4.364C47.587,64.7,47.412,65.145,47.215,65.619Zm11.321-1.6a24.537,24.537,0,0,1-2.519-.521,4.717,4.717,0,0,1-2.24-1.428,2.725,2.725,0,0,1-.69-1.6,2.57,2.57,0,0,1,.837-2A5.373,5.373,0,0,1,56.3,57.108a8.287,8.287,0,0,1,2.665-.323,7.31,7.31,0,0,1,3.171.751,3.933,3.933,0,0,1,1.888,1.772,2.426,2.426,0,0,1-.444,2.749,5.009,5.009,0,0,1-2.259,1.452,10.818,10.818,0,0,1-1.431.3C59.483,63.881,59.072,63.937,58.537,64.02Zm18.237-.045a5.5,5.5,0,0,1-3.488-1.253,1.856,1.856,0,0,1-.258-2.682,4.09,4.09,0,0,1,2.045-1.248,6.006,6.006,0,0,1,2.556-.175,3.972,3.972,0,0,1,2.954,1.506,1.884,1.884,0,0,1,.034,2.172A3.575,3.575,0,0,1,79.035,63.5a3.99,3.99,0,0,1-.855.292C77.716,63.883,77.243,63.918,76.774,63.975ZM65.8,54.322a12.391,12.391,0,0,1-1.667-.331,2.492,2.492,0,0,1-1.593-1.36,1.438,1.438,0,0,1,.425-1.661,4,4,0,0,1,2.386-1.02,4.833,4.833,0,0,1,1.958.186A2.694,2.694,0,0,1,69,51.318a1.433,1.433,0,0,1-.361,1.991A4.051,4.051,0,0,1,65.8,54.322Zm3.4,4.912a2.7,2.7,0,0,1-2.388-.857,1.07,1.07,0,0,1-.054-1.581,2.772,2.772,0,0,1,1.793-.967A3.594,3.594,0,0,1,70.506,56a2.115,2.115,0,0,1,1.32,1.073,1.263,1.263,0,0,1-.45,1.5A2.774,2.774,0,0,1,69.2,59.234Z"/>
</svg>