<svg width="118" height="41" xmlns="http://www.w3.org/2000/svg" viewBox="0 0 880 250"><defs><style>.cls-1{fill:#ff7a1b;}.cls-2{fill:#333;}</style></defs><path class="cls-1" d="M136.12,0C92.21,0,0,0,0,125S92.21,250,136.12,250s136.13,0,136.13-125C271.37,0,180,0,136.12,0ZM252.93,102.74c-9.66-9.42-22.84-15.41-35.13-19.69-27.23-7.71-59.72-7.71-81.68-7.71-46.54,0-90.45,0-90.45,29.11s43.91,29.11,90.45,29.11c16.69,0,37.77,0,52.7,2.57,12.29,1.71,20.2,5.14,20.2,9.42,0,3.42-7.91,6.85-20.2,9.42-15.81,2.56-36,2.56-52.7,2.56-56.2,0-115.92-4.28-115.92-51.37S79.92,54.79,136.12,54.79c37.77,0,77.29,0,110.66,18A140,140,0,0,1,252.93,102.74ZM18.44,146.4c9.66,9.42,22.84,15.42,35.13,19.7,27.23,7.7,59.72,7.7,81.68,7.7,40.39,0,90.45,0,90.45-29.11s-50.06-29.11-90.45-29.11c-29,0-72.9,0-72.9-12s43.91-12,72.9-12c56.2,0,115.92,4.28,115.92,51.37s-59.72,51.37-115.92,51.37c-37.77,0-77.29,0-110.66-18C22,168.66,20.2,158.39,18.44,146.4ZM59.72,30.82c24.59-13.7,54.45-13.7,76.4-13.7s51.82,0,76.41,13.7a72.93,72.93,0,0,1,20.2,16.27c-31.62-10.27-65.87-10.27-96.61-10.27-22,0-54.45,0-81.67,7.7-7,1.71-12.3,4.28-17.56,6.85C42.15,42.81,50.06,36,59.72,30.82Zm152.81,187.5C187.94,232,158.08,232,136.12,232s-51.81,0-76.4-13.7a72.79,72.79,0,0,1-20.2-16.27c31.62,10.28,65.87,10.28,96.6,10.28,22,0,54.45,0,81.68-7.71,7-1.71,12.29-4.28,17.56-6.85A73.68,73.68,0,0,1,212.53,218.32Z"/><path class="cls-2" d="M574.67,123.69c-29.54,0-34.47,19-34.47,29.68,0,19,13.54,29.67,35.7,29.67,16,0,27.09-3.56,35.71-13,2.46,8.31,9.85,13,18.46,13,4.93,0,6.16,0,9.85-1.18h2.47V167.61h-1.24c-8.61,0-9.84-1.18-9.84-9.49v-38c0-22.55-13.55-33.24-41.86-33.24-14.78,0-25.86,2.38-40.63,8.31h-1.23l4.92,16.62,1.23-1.19c12.32-4.74,23.4-7.12,35.71-7.12,19.69,0,23.39,5.94,23.39,16.62v3.56Zm-1.23,15.43,36.94-2.37v16.62c-9.85,8.31-19.7,10.68-32,10.68-7.39,0-17.24-2.37-17.24-13.06C561.13,148.62,562.36,139.12,573.44,139.12Z"/><path class="cls-2" d="M360.47,167.24a75.1,75.1,0,0,1-28.31-5.94l-1.23-1.18L326,176.74h1.23c11.08,4.74,20.93,5.93,34.47,5.93,29.55,0,46.79-10.68,46.79-29.68,0-17.8-12.31-27.3-38.17-29.67-18.47-2.38-23.39-4.75-23.39-11.87s7.39-10.69,22.16-10.69c11.08,0,18.47,1.19,27.09,5.94l1.23,1.19,6.15-15.44h-1.23c-11.08-4.74-19.7-5.93-34.47-5.93-30.78,0-41.86,14.24-41.86,27.3,0,16.62,11.08,24.93,38.17,27.3,20.93,2.38,24.62,5.94,24.62,11.87C387.56,163.68,377.71,167.24,360.47,167.24Z"/><path class="cls-2" d="M755.65,182.67v-54.6c0-27.31-13.54-41.55-40.62-41.55-13.54,0-25.85,4.75-33.24,14.24l-1.23-11.87H662.09v93.78H683V119.76c8.62-10.69,18.47-15.44,32-15.44s19.7,7.13,19.7,23.75v54.6Z"/><path class="cls-2" d="M479.88,88.7c-9.85,0-22.16,2.37-32,11.87V48.34H426.94V183.66h20.93v-64.1c8.61-9.5,19.69-15.43,32-15.43,13.54,0,19.69,7.12,19.69,23.74v54.61H520.5V127.87C520.5,102.94,505.73,88.7,479.88,88.7Z"/><path class="cls-2" d="M876.4,165.65c-8.42,0-9.63-1.16-9.63-9.28V119.26c0-22-13.23-32.48-40.89-32.48-14.44,0-25.26,2.32-39.7,8.12H785l4.82,16.24L791,110c12-4.64,22.85-7,34.89-7,19.24,0,22.85,5.8,22.85,16.24v5.8H813.84c-28.87,0-33.68,18.55-33.68,29,0,18.56,13.24,29,34.89,29,15.63,0,26.46-3.47,34.88-12.75C852.34,178.41,859.56,183,868,183c4.8,0,6,0,9.62-1.16H880V166.06ZM846.32,139v16.24c-9.62,8.12-19.24,10.44-31.27,10.44-7.22,0-16.84-2.32-16.84-12.76,0-2.32,1.2-11.6,12-11.6Z"/></svg>