<svg width="118" height="41" viewBox="0 0 118 41" fill="none" xmlns="http://www.w3.org/2000/svg">
<path d="M22.3244 0C15.123 0 0 7.62939e-06 0 20.5C0 41 15.123 41 22.3244 41C29.5258 41 44.6488 41 44.6488 20.5C44.5048 7.62939e-06 29.5258 0 22.3244 0ZM41.4802 16.8493C39.8958 15.3048 37.7354 14.3219 35.719 13.6199C31.2541 12.3562 25.9251 12.3562 22.3244 12.3562C14.6909 12.3562 7.48947 12.3562 7.48947 17.1301C7.48947 21.9041 14.6909 21.9041 22.3244 21.9041C25.0609 21.9041 28.5176 21.9041 30.9661 22.3253C32.9825 22.6062 34.2787 23.1678 34.2787 23.8699C34.2787 24.4315 32.9825 24.9932 30.9661 25.4144C28.3736 25.8356 25.0609 25.8356 22.3244 25.8356C13.1066 25.8356 3.31264 25.1336 3.31264 17.411C3.31264 9.68836 13.1066 8.9863 22.3244 8.9863C28.5176 8.9863 34.9989 8.9863 40.472 11.9349C40.904 13.339 41.3361 15.024 41.4802 16.8493ZM3.02458 24.0103C4.60889 25.5548 6.76932 26.5377 8.78572 27.2397C13.2506 28.5034 18.5797 28.5034 22.1804 28.5034C28.8057 28.5034 37.0153 28.5034 37.0153 23.7295C37.0153 18.9555 28.8057 18.9555 22.1804 18.9555C17.4274 18.9555 10.226 18.9555 10.226 16.9897C10.226 15.024 17.4274 15.024 22.1804 15.024C31.3982 15.024 41.1921 15.726 41.1921 23.4486C41.1921 31.1712 31.3982 31.8733 22.1804 31.8733C15.9871 31.8733 9.50586 31.8733 4.03278 28.9247C3.60069 27.661 3.31264 25.976 3.02458 24.0103ZM9.79391 5.0548C13.8267 2.80823 18.7237 2.80822 22.3244 2.80822C25.9251 2.80822 30.8221 2.80823 34.8549 5.0548C36.1511 5.75686 37.1593 6.59931 38.1675 7.7226C32.9825 6.03767 27.3654 6.03767 22.3244 6.03767C18.7237 6.03767 13.3946 6.03768 8.92976 7.30137C7.77753 7.5822 6.91336 8.00342 6.04919 8.42466C6.91336 7.02055 8.2096 5.89727 9.79391 5.0548ZM34.8549 35.8048C30.8221 38.0514 25.9251 38.0514 22.3244 38.0514C18.7237 38.0514 13.8267 38.0514 9.79391 35.8048C8.49766 35.1027 7.48948 34.2603 6.48128 33.137C11.6663 34.8219 17.2834 34.8219 22.3244 34.8219C25.9251 34.8219 31.2541 34.8219 35.719 33.5582C36.8712 33.2774 37.7354 32.8562 38.5996 32.4349C37.5914 33.839 36.2951 34.9623 34.8549 35.8048Z" fill="#FF7A1B"/>
<path d="M81.8263 14.4857C78.3256 14.4857 77.7422 16.7359 77.7422 18.0016C77.7422 20.2518 79.3467 21.5176 81.9721 21.5176C83.8683 21.5176 85.181 21.0956 86.2021 19.9706C86.4938 20.955 87.3689 21.5176 88.39 21.5176C88.9734 21.5176 89.1193 21.5176 89.5568 21.3769H89.8486V19.6893H89.7027C88.6817 19.6893 88.5358 19.5486 88.5358 18.5642V14.0638C88.5358 11.3917 86.9314 10.126 83.5766 10.126C81.8263 10.126 80.5135 10.4072 78.7632 11.1104H78.6174L79.2008 13.0793L79.3467 12.9387C80.8053 12.3762 82.118 12.0949 83.5766 12.0949C85.9103 12.0949 86.3479 12.7981 86.3479 14.0638V14.4857H81.8263ZM81.6804 16.314L86.0562 16.0327V18.0016C84.8893 18.9861 83.7224 19.2674 82.2639 19.2674C81.3887 19.2674 80.2218 18.9861 80.2218 17.7204C80.2218 17.4391 80.3677 16.314 81.6804 16.314Z" fill="black"/>
<path d="M117.563 19.408C116.542 19.408 116.396 19.2674 116.396 18.2829V13.7826C116.396 11.1105 114.791 9.84473 111.437 9.84473C109.686 9.84473 108.374 10.126 106.623 10.8292H106.477L107.061 12.7981L107.207 12.6575C108.665 12.0949 109.978 11.8136 111.437 11.8136C113.77 11.8136 114.208 12.5168 114.208 13.7826V14.4857H109.978C106.477 14.4857 105.894 16.7359 105.894 18.0017C105.894 20.2519 107.499 21.5176 110.124 21.5176C112.02 21.5176 113.333 21.0957 114.354 19.9706C114.646 20.955 115.521 21.5176 116.542 21.5176C117.125 21.5176 117.271 21.5176 117.709 21.377H118V19.6893H117.563V19.408ZM113.916 16.1734V18.1423C112.749 19.1268 111.583 19.408 110.124 19.408C109.249 19.408 108.082 19.1268 108.082 17.861C108.082 17.5798 108.228 16.4547 109.541 16.4547L113.916 16.1734Z" fill="black"/>
<path d="M51.9253 27.5645H53.9673V33.0493H54.8425V27.5645H56.7387V26.8613H51.9253V27.5645Z" fill="black"/>
<path d="M61.1149 30.2366H64.0321V29.5334H61.1149V27.5645H64.3238V26.8613H60.2397V33.0493H64.4697V32.3462H61.1149V30.2366Z" fill="black"/>
<path d="M71.9078 28.1271C72.1995 27.7051 72.3454 27.7051 72.783 27.7051C72.9288 27.7051 73.0747 27.7051 73.0747 27.7051L73.2205 27.002C72.9288 27.002 72.783 26.8613 72.4912 26.8613C71.9078 26.8613 71.4702 27.1426 71.1785 27.7051L70.1575 29.2522H68.8447V27.002H67.8237V33.19H68.8447V29.9553H70.1575L72.1995 33.19H73.2205L70.7409 29.5334L71.9078 28.1271Z" fill="black"/>
<path d="M79.6393 27.4239C80.3686 27.4239 80.952 27.5645 81.5355 28.1271L81.9731 27.4239C81.2438 27.002 80.6603 26.7207 79.6393 26.7207C77.7431 26.7207 76.1387 27.9864 76.1387 29.9554C76.1387 32.2055 77.7431 33.19 79.4935 33.19C80.5145 33.19 81.2438 33.0494 81.8272 32.6275L81.5355 31.7836C80.8062 32.2055 80.3686 32.3462 79.4935 32.3462C78.0349 32.3462 77.0138 31.5024 77.0138 29.9554C77.1597 28.549 78.1807 27.4239 79.6393 27.4239Z" fill="black"/>
<path d="M85.1816 27.5645H87.2237V33.0493H88.0988V27.5645H89.995V26.8613H85.1816V27.5645Z" fill="black"/>
<path d="M94.3713 31.7836V26.8613H93.4961V33.0493H94.3713L98.1636 28.2677V33.0493H99.0388V26.8613H98.1636L94.3713 31.7836Z" fill="black"/>
<path d="M104.435 28.6896C104.435 30.2366 104.289 31.2211 103.998 31.7836C103.852 32.2055 103.56 32.3462 103.122 32.3462C102.977 32.3462 102.831 32.3462 102.539 32.2055L102.393 32.9087C102.685 33.0493 102.831 33.0493 103.122 33.0493C103.852 33.0493 104.289 32.7681 104.727 32.0649C105.019 31.3617 105.31 30.3772 105.31 28.9709V27.5645H107.936V33.0493H108.811V26.8613H104.435V28.6896Z" fill="black"/>
<path d="M115.084 29.2522H113.479V26.8613H112.604V33.0493H115.084C116.542 33.0493 117.563 32.3462 117.563 31.0804C117.563 29.8147 116.542 29.2522 115.084 29.2522ZM115.084 32.3462H113.625V29.9553H115.084C115.959 29.9553 116.688 30.2366 116.688 31.2211C116.688 32.0649 115.959 32.3462 115.084 32.3462Z" fill="black"/>
<path d="M56.4488 19.408C55.2819 19.408 54.1151 19.1268 53.094 18.7049L52.9482 18.5642L52.3647 20.5331H52.5106C53.8234 21.0957 54.9902 21.2363 56.5947 21.2363C60.0953 21.2363 62.1373 19.9706 62.1373 17.7204C62.1373 15.6108 60.6788 14.4858 57.6157 14.2045C55.4278 13.9232 54.8444 13.6419 54.8444 12.7981C54.8444 11.9543 55.7195 11.5324 57.4698 11.5324C58.7826 11.5324 59.6577 11.673 60.6788 12.2356L60.8246 12.3762L61.5539 10.5479H61.4081C60.0953 9.98536 59.0743 9.84473 57.324 9.84473C53.6775 9.84473 52.3647 11.5324 52.3647 13.0794C52.3647 15.0483 53.6775 16.0328 56.8864 16.314C59.366 16.5953 59.8036 17.0172 59.8036 17.7204C59.6577 18.9861 58.4909 19.408 56.4488 19.408Z" fill="black"/>
<path d="M70.5952 9.84414C69.4283 9.84414 67.9697 10.1254 66.8029 11.2505V5.0625H64.3232V21.0951H66.8029V13.5007C67.8239 12.3756 69.1366 11.6724 70.5952 11.6724C72.1997 11.6724 72.929 12.5162 72.929 14.4852V20.9545H75.4086V14.4852C75.4086 11.5318 73.6583 9.84414 70.5952 9.84414Z" fill="black"/>
<path d="M103.268 21.2363V14.767C103.268 11.5324 101.664 9.84473 98.4551 9.84473C96.8506 9.84473 95.392 10.4073 94.5168 11.5324L94.371 10.126H92.1831V21.2363H94.6627V13.7826C95.6837 12.5168 96.8506 11.9543 98.4551 11.9543C100.06 11.9543 100.789 12.7981 100.789 14.767V21.2363H103.268Z" fill="black"/>
</svg>
