<svg width="16" height="16" viewBox="0 0 16 16" fill="none" xmlns="http://www.w3.org/2000/svg">
<path d="M15.6189 15.4886L11.1303 10.8205C12.2752 9.67232 12.9845 8.08942 12.9845 6.34369C12.9845 2.8456 10.1389 0 6.64081 0C3.14272 0 0.297119 2.8456 0.297119 6.34369C0.297119 9.84179 3.14272 12.6874 6.64081 12.6874C8.17629 12.6874 9.58549 12.1385 10.6839 11.2277L15.1833 15.9073C15.2426 15.9692 15.3217 16 15.4011 16C15.4767 16 15.5519 15.9719 15.6105 15.9157C15.7307 15.8 15.7343 15.6088 15.6189 15.4886ZM6.64081 12.0832C3.47591 12.0832 0.90128 9.50859 0.90128 6.34369C0.90128 3.17879 3.47591 0.604161 6.64081 0.604161C9.80571 0.604161 12.3803 3.17879 12.3803 6.34369C12.3803 9.50859 9.80541 12.0832 6.64081 12.0832Z" fill="#C4C4C4"/>
</svg>
