<svg xmlns="http://www.w3.org/2000/svg" width="43" height="40" viewBox="0 0 43 40">
  <path style="fill: none;stroke: #fe3000; stroke-width: 2px; fill-rule: evenodd;" d="M21.541,3.014c5.052-.017,9.69-3.9,13.253-0.829a20.8,20.8,0,0,1,7.2,15.889A20.85,20.85,0,0,1,21.421,39,20.513,20.513,0,0,1,.989,18.215,21.112,21.112,0,0,1,8.174,2.379C11.774-.777,16.433,3.031,21.541,3.014Z"/>
  <path style="fill: #fe3000; fill-rule: evenodd;" d="M19.459,29h4.087V16.873H19.459V29ZM21.5,15.531a2.5,2.5,0,0,0,1.807-.66A2.21,2.21,0,0,0,24,13.2a2.02,2.02,0,0,0-.689-1.577,2.611,2.611,0,0,0-1.807-.615,2.528,2.528,0,0,0-1.807.649,2.228,2.228,0,0,0,0,3.221,2.526,2.526,0,0,0,1.807.649h0Z"/>
</svg>