<svg xmlns="http://www.w3.org/2000/svg" width="43" height="40" viewBox="0 0 43 40">
  <path style="fill: none;stroke: #fe3000;stroke-width: 2px;fill-rule: evenodd;" d="M21.541,3.014c5.052-.017,9.69-3.9,13.253-0.829a20.8,20.8,0,0,1,7.2,15.888A20.85,20.85,0,0,1,21.421,39,20.513,20.513,0,0,1,.989,18.215,21.112,21.112,0,0,1,8.174,2.379C11.774-.777,16.433,3.032,21.541,3.014Z"/>
  <path style="fill-rule: evenodd;fill: #fe3000;" d="M21.5,19a3.859,3.859,0,0,1-1.872-.465,3.517,3.517,0,0,1-1.349-1.271,3.4,3.4,0,0,1,0-3.527,3.517,3.517,0,0,1,1.349-1.271,4,4,0,0,1,3.743,0,3.516,3.516,0,0,1,1.349,1.271,3.4,3.4,0,0,1,0,3.527,3.516,3.516,0,0,1-1.349,1.271A3.859,3.859,0,0,1,21.5,19Zm2.611,0.875a3.987,3.987,0,0,1,1.944.492,3.754,3.754,0,0,1,1.422,1.34A3.429,3.429,0,0,1,28,23.539v1.148a1.23,1.23,0,0,1-.406.93,1.386,1.386,0,0,1-.987.383H16.393a1.386,1.386,0,0,1-.987-0.383A1.23,1.23,0,0,1,15,24.688V23.539a3.428,3.428,0,0,1,.522-1.832,3.753,3.753,0,0,1,1.422-1.34,3.987,3.987,0,0,1,1.944-.492h0.493a5.347,5.347,0,0,0,4.237,0h0.493Z"/>
</svg>