<svg xmlns="http://www.w3.org/2000/svg" width="52" height="51" viewBox="0 0 52 51">
  <defs>
    <style>
      .cls-1 {
        fill: #fe3000;
      }

      .cls-1, .cls-2 {
        fill-rule: evenodd;
      }

      .cls-2 {
        fill: #fff;
      }
    </style>
  </defs>
  <path id="Эллипс_4" data-name="Эллипс 4" class="cls-1" d="M35.7,9.689c5.456,3.126,12.821,1.915,14.791,7.372a25.137,25.137,0,0,1-1.924,21.25A25.676,25.676,0,0,1,13.642,47.6,25.321,25.321,0,0,1,21.678.7C27.481-.391,30.183,6.528,35.7,9.689Z"/>
  <path id="Фигура_9" data-name="Фигура 9" class="cls-2" d="M32.457,30.051c0.219-.705.439-1.39,0.642-2.079,0.136-.461.24-0.933,0.374-1.395,0.2-.7.429-1.395,0.632-2.1,0.142-.49.254-0.989,0.393-1.48s0.3-.95.435-1.428c0.125-.437.2-0.888,0.354-1.314a1.3,1.3,0,0,1,.834-0.815,1.128,1.128,0,0,1,1.052.125,1.246,1.246,0,0,1,.571,1.543c-0.136.644-.344,1.273-0.525,1.908-0.219.77-.445,1.539-0.665,2.309-0.169.59-.333,1.181-0.5,1.771-0.221.77-.439,1.542-0.667,2.31-0.192.647-.431,1.283-0.583,1.939a1.8,1.8,0,0,1-.449.967,1.285,1.285,0,0,1-.913.379q-6.473,0-12.946,0a1.3,1.3,0,0,1-1.225-.874c-0.112-.477-0.22-0.955-0.334-1.432-0.157-.653-0.328-1.3-0.474-1.957-0.131-.586-0.23-1.179-0.359-1.766-0.144-.653-0.315-1.3-0.461-1.952-0.133-.593-0.241-1.191-0.372-1.785-0.088-.4-0.206-0.793-0.295-1.193-0.131-.594-0.242-1.192-0.373-1.786-0.051-.233-0.132-0.461-0.2-0.707-0.837,0-1.679.009-2.521,0a1.141,1.141,0,0,1-1.111-1.372,1.117,1.117,0,0,1,1.22-1h2.667c0.289,0,.581.023,0.867,0a1.327,1.327,0,0,1,1.264,1.064,9.243,9.243,0,0,0,.267,1.142c0.083,0.376.141,0.758,0.225,1.134,0.088,0.391.2,0.777,0.289,1.168,0.133,0.6.244,1.209,0.378,1.811,0.144,0.647.309,1.288,0.453,1.935,0.134,0.6.246,1.209,0.381,1.812,0.089,0.4.212,0.79,0.3,1.19,0.13,0.585.239,1.174,0.368,1.758a0.4,0.4,0,0,0,.165.168,0.219,0.219,0,0,0,.109,0H32.457Zm-4.991-9.428c1.907,0,2.812.019,4.718-.011a1.154,1.154,0,0,1,1.1,1.336,1.085,1.085,0,0,1-1.222.99c-3.759,0-5.512-.009-9.271.01a1.287,1.287,0,0,1-1.154-.894,1.08,1.08,0,0,1,.6-1.269,1.361,1.361,0,0,1,.542-0.157C24.672,20.619,25.568,20.623,27.466,20.623Zm-0.046,5.292c-1.63,0-2.257-.007-3.887,0a1.1,1.1,0,0,1-1.009-.714,0.967,0.967,0,0,1,.117-1.051,1.309,1.309,0,0,1,1.109-.563c3.148,0.016,4.292.015,7.44,0a1.237,1.237,0,0,1,1.243,1.172,1.178,1.178,0,0,1-1.1,1.157C29.695,25.9,29.058,25.915,27.419,25.915ZM27.219,29c-1.294,0-1.586,0-2.88,0a1.21,1.21,0,1,1-.054-2.419c2.677-.014,3.348-0.019,6.025,0a1.2,1.2,0,0,1,1.24,1.429,1.293,1.293,0,0,1-1.146.966,2.414,2.414,0,0,1-.381.02c-1.269,0-1.535,0-2.8,0v0Zm-1.945,7.083a2.655,2.655,0,1,1-5.311,0A2.655,2.655,0,0,1,25.274,36.086Zm8.169,0a2.605,2.605,0,0,1-2.675,2.664,2.662,2.662,0,0,1,.052-5.323A2.581,2.581,0,0,1,33.444,36.087Z"/>
</svg>
