<svg xmlns="http://www.w3.org/2000/svg" width="43" height="40" viewBox="0 0 43 40">
  <path style="fill: #fe3000;fill-rule: evenodd;" d="M22.639,28.371a11.329,11.329,0,0,0,4.2-.747A8.235,8.235,0,0,0,30,25.454l-2.649-2.24a5.887,5.887,0,0,1-4.484,1.937,6.393,6.393,0,0,1-2.955-.665,4.966,4.966,0,0,1-2.025-1.855,5.409,5.409,0,0,1,0-5.413,4.966,4.966,0,0,1,2.025-1.855,6.393,6.393,0,0,1,2.955-.665,5.922,5.922,0,0,1,4.484,1.913L30,14.371a8.383,8.383,0,0,0-3.146-2.147,11.228,11.228,0,0,0-4.19-.747,11.065,11.065,0,0,0-4.955,1.085,8.563,8.563,0,0,0-3.465,3.01,7.766,7.766,0,0,0-1.261,4.352,7.765,7.765,0,0,0,1.261,4.352,8.563,8.563,0,0,0,3.465,3.01,11.006,11.006,0,0,0,4.929,1.085h0Z"/>
  <rect style="fill: #fe3000;" x="18.844" y="9" width="2.094" height="21"/>
  <rect style="fill: #fe3000;" x="23.031" y="9" width="2.063" height="21"/>
  <path style="fill-rule: evenodd;fill: none;stroke: #fe3000;stroke-width: 2px;" d="M21.541,3.014c5.052-.017,9.69-3.9,13.253-0.829a20.8,20.8,0,0,1,7.2,15.889A20.85,20.85,0,0,1,21.421,39,20.513,20.513,0,0,1,.989,18.215,21.112,21.112,0,0,1,8.174,2.379C11.774-.777,16.433,3.031,21.541,3.014Z"/>
</svg>