<svg xmlns="http://www.w3.org/2000/svg" width="43" height="40" viewBox="0 0 43 40">
  <path style="fill: none;stroke: #fe3000;stroke-width: 2px;fill-rule: evenodd;" d="M21.541,3.014c5.052-.017,9.69-3.9,13.253-0.829a20.8,20.8,0,0,1,7.2,15.889A20.85,20.85,0,0,1,21.421,39,20.513,20.513,0,0,1,.989,18.215,21.112,21.112,0,0,1,8.174,2.379C11.774-.777,16.433,3.032,21.541,3.014Z"/>
  <path style="fill-rule: evenodd;fill: #fe3000;" d="M25.35,10.994a1.573,1.573,0,0,1,1.169.492,1.646,1.646,0,0,1,.481,1.2V27.307a1.646,1.646,0,0,1-.481,1.2,1.573,1.573,0,0,1-1.169.492h-7.7a1.574,1.574,0,0,1-1.169-.492,1.647,1.647,0,0,1-.481-1.2V12.682a1.647,1.647,0,0,1,.481-1.2,1.574,1.574,0,0,1,1.169-.492h7.7ZM21.5,27.869a1.045,1.045,0,0,0,.773-0.334,1.121,1.121,0,0,0,0-1.582,1.062,1.062,0,0,0-1.547,0,1.121,1.121,0,0,0,0,1.582A1.045,1.045,0,0,0,21.5,27.869Zm3.85-3.8V13.1a0.412,0.412,0,0,0-.12-0.3,0.393,0.393,0,0,0-.292-0.123H18.062a0.394,0.394,0,0,0-.292.123,0.412,0.412,0,0,0-.12.3V24.072a0.412,0.412,0,0,0,.12.3,0.394,0.394,0,0,0,.292.123h6.875a0.393,0.393,0,0,0,.292-0.123A0.412,0.412,0,0,0,25.35,24.072Z"/>
</svg>