<svg xmlns="http://www.w3.org/2000/svg" width="39" height="32" viewBox="0 0 39 32">
  <path d="M316.385,6041.04a3.681,3.681,0,0,1-2.445,2.75,3.5,3.5,0,0,1-4.048-1.2,3.683,3.683,0,0,1-.3-4.22h-1.148a6.283,6.283,0,0,1,3.394-6.9h-0.657c-1.855,0-3.71-.01-5.564.01a1.094,1.094,0,0,1-.944-0.4c-0.438-.53-0.975-0.97-1.425-1.49a1.454,1.454,0,0,1,1.035-2.22,1.626,1.626,0,0,1,1.541.65,1.162,1.162,0,0,0,1.031.43c2.527-.02,5.053,0,7.58-0.01a1.456,1.456,0,0,1,1.023.4,14.582,14.582,0,0,0,1.157.92,0.647,0.647,0,0,0,.371.07c1.608,0.06,3.216.11,4.825,0.17,0.709,0.02,1.419.08,2.128,0.07a0.5,0.5,0,0,1,.6.47,4.183,4.183,0,0,0,.211.63c-0.2.17-.421,0.41-0.679,0.6a1.884,1.884,0,0,0-.755,1.19,11.411,11.411,0,0,0-.409,1.97,2.088,2.088,0,0,0,1.87,2.33,19.022,19.022,0,0,0,2.627.21,6.083,6.083,0,0,1-.889-2.42c-0.206-.71-0.423-1.42-0.628-2.13-0.105-.37-0.189-0.74-0.29-1.11-0.158-.58-0.325-1.16-0.482-1.74-0.038-.14-0.053-0.29-0.081-0.45a0.594,0.594,0,0,0-.142-0.03c-2.431-.03-4.862-0.07-7.293-0.08a1.77,1.77,0,0,1-1.762-2,7.639,7.639,0,0,1,.907-2.5c0.474-1.14,1.028-2.26,1.565-3.38s1.1-2.24,1.643-3.36a5.669,5.669,0,0,1,.3-0.66,0.431,0.431,0,0,1,.371-0.18,27.412,27.412,0,0,1,2.663.9,2.19,2.19,0,0,1,.7.8c0.734,1,1.486,2,2.166,3.04a1.5,1.5,0,0,0,1.095.65c0.765,0.16,1.511.41,2.268,0.61a5.236,5.236,0,0,1,.808.17,1.522,1.522,0,0,1,.953,1.63h0.564a18.078,18.078,0,0,1-1.1-2.19,19.465,19.465,0,0,1-.536-2.45,2.87,2.87,0,0,1,.53-0.2,0.335,0.335,0,0,1,.286.16,3.461,3.461,0,0,1,.173,2.5,0.634,0.634,0,0,0,.139.41c0.306,0.48.628,0.95,0.941,1.42a3.277,3.277,0,0,1,2.441-.52v2.72c-0.584-.04-1.153-0.08-1.764-0.12,0.294,0.48.594,0.97,0.894,1.45,0.695,1.13,1.389,2.27,2.084,3.4,0.028,0.04.052,0.09,0.083,0.14a2,2,0,0,1,.586,1.45,15.756,15.756,0,0,1,2.179.63,5.733,5.733,0,0,1,2.764,2.34,3.214,3.214,0,0,1,.43,2.1c-0.4-.15-0.787-0.28-1.158-0.44a5.025,5.025,0,0,0-3.323-.31,3.593,3.593,0,0,0-1.6,1.21,0.666,0.666,0,0,1-.444.22c-1.25.02-2.5,0-3.749,0.01a0.854,0.854,0,0,0-.466.16,2.911,2.911,0,0,1-1.94.56c-2.618-.03-5.236-0.08-7.853-0.18a1.417,1.417,0,0,0-1.264.36,0.5,0.5,0,0,1-.331.08c-2.432,0-4.865-.01-7.3.01a0.552,0.552,0,0,1-.528-0.4c-0.147-.28-0.278-0.56-0.422-0.85a2.074,2.074,0,0,0-.575,1.5,1.851,1.851,0,0,0,1,1.46,1.748,1.748,0,0,0,2.165-.59,0.475,0.475,0,0,1,.273-0.22C315.087,6041.03,315.712,6041.04,316.385,6041.04Zm14.632-14.71a4.53,4.53,0,0,1-.974.21,6.179,6.179,0,0,1-1.2-.19c-0.564-.13-1.118-0.3-1.68-0.44-0.753-.19-1.512-0.35-2.264-0.54a0.639,0.639,0,0,1-.3-0.24c-0.648-.88-1.288-1.77-1.976-2.73-0.635,1.36-1.244,2.67-1.848,3.96,0.579,0.04,1.125.1,1.673,0.12,1.5,0.06,3,.11,4.5.16a0.416,0.416,0,0,1,.473.37c0.209,0.83.478,1.64,0.7,2.47,0.256,0.93.484,1.87,0.738,2.8,0.307,1.13.651,2.24,0.934,3.37a3.4,3.4,0,0,1,.008,1.07,1.3,1.3,0,0,1-.2.43,1.526,1.526,0,0,0,.529-0.38c0.749-.83,1.52-1.65,2.222-2.53a2.022,2.022,0,0,0,.693-1.55,7.094,7.094,0,0,0-.3-1.11c-0.211-.66-0.445-1.32-0.659-1.98-0.105-.32-0.175-0.66-0.283-0.98C331.564,6027.89,331.309,6027.17,331.017,6026.33Zm-9.579-11.22a3.214,3.214,0,0,1,1.024-2.72,1.556,1.556,0,0,1,1.677-.26,3.675,3.675,0,0,1,2.193,2.04,2.577,2.577,0,0,1-4.494,2.5A2.32,2.32,0,0,1,321.438,6015.11Zm12.843,25.3h1.858c0.51,1.54,1.488,1.75,2.5,1.41a1.577,1.577,0,0,0,1.03-1.37,1.873,1.873,0,0,0-.583-1.61l0.071-.09c0.557,0.19,1.114.37,1.67,0.56,0.048,0.02.085,0.07,0.134,0.09a0.838,0.838,0,0,1,.649,1.2,3.912,3.912,0,0,1-.71,1.82,3.769,3.769,0,0,1-2.34,1.43,3.513,3.513,0,0,1-2.936-.78,3.756,3.756,0,0,1-1.334-2.25A1.98,1.98,0,0,1,334.281,6040.41ZM306.52,6024.7H314.5c0,0.42.02,0.83-.016,1.23a0.439,0.439,0,0,1-.34.21c-0.967.02-1.935,0.01-2.9,0.01-1.424,0-2.849-.01-4.273.01-0.361,0-.479-0.11-0.45-0.47C306.54,6025.37,306.52,6025.04,306.52,6024.7Zm3.991-3.78c1.2,0,2.391.01,3.586,0,0.324-.01.412,0.1,0.41,0.42,0,1.05.006,1.05-1.037,1.05-2.163,0-4.325-.01-6.487.01a0.387,0.387,0,0,1-.471-0.49c0.021-.99,0-0.99.978-0.99h3.021Zm-0.009,5.63c1.208,0,2.416.01,3.624-.01a0.311,0.311,0,0,1,.379.37c0.028,1.12.035,1.12-1.051,1.12q-3.24,0-6.482.01a0.371,0.371,0,0,1-.46-0.46c0.016-1.03,0-1.03,1.011-1.03H310.5Zm4-2.38h-7.96v-1.35c0.139,0,.268-0.02.4-0.02,2.366,0,4.731.01,7.1-.01,0.379,0,.508.11,0.472,0.49C314.479,6023.56,314.5,6023.85,314.5,6024.17Z" transform="translate(-303 -6012)"/>
</svg>