<svg xmlns="http://www.w3.org/2000/svg" width="42.031" height="42" viewBox="0 0 42.031 42">
  <path d="M303.97,3720c0-.91,0-1.77.009-2.62a0.275,0.275,0,0,1,.2-0.17c0.427-.08.857-0.12,1.285-0.19,0.348-.05.694-0.11,1.041-0.17,0.711-.12,1.422-0.23,2.133-0.35s1.409-.22,2.112-0.34c0.583-.11,1.16-0.24,1.744-0.34,0.825-.13,1.655-0.23,2.48-0.36,0.6-.09,1.186-0.22,1.781-0.32,0.464-.07.933-0.12,1.4-0.2s0.917-.18,1.376-0.26c0.161-.03.325-0.05,0.487-0.07,0.464-.06.931-0.11,1.392-0.19s0.889-.19,1.335-0.27a4.5,4.5,0,0,1,.517-0.06c0.465-.06.932-0.11,1.393-0.19s0.888-.19,1.333-0.27a4.491,4.491,0,0,1,.517-0.07c0.456-.06.915-0.1,1.369-0.18,0.575-.09,1.144-0.22,1.719-0.32,0.484-.08.974-0.12,1.457-0.2,0.461-.07.917-0.18,1.376-0.27,0.16-.03.323-0.04,0.485-0.07,0.709-.11,1.417-0.23,2.127-0.34,0.465-.07.935-0.11,1.4-0.18,0.437-.08.868-0.19,1.3-0.28,0.1-.02.217,0.01,0.321-0.01,0.622-.11,1.243-0.23,1.865-0.34,0.18-.03.364-0.04,0.546-0.06,0.455-.06.911-0.11,1.364-0.18,0.317-.05.628-0.14,0.963-0.22v-14a4.379,4.379,0,0,1-5.46-4.28,4.317,4.317,0,0,1-5.429-4.13,4.353,4.353,0,0,1-6.542-2.93,4.346,4.346,0,0,1-4.723.38,4.048,4.048,0,0,1-2.176-2.84,4.181,4.181,0,0,1,3.441-5.05,4.252,4.252,0,0,1,5.031,3.49,4.337,4.337,0,0,1,4.591-.43,4.229,4.229,0,0,1,2.432,3.82,4.2,4.2,0,0,1,4.434-.06,3.931,3.931,0,0,1,2.132,3.73h1.43a4.053,4.053,0,0,1,2.754,1.19,4.111,4.111,0,0,1,1.023,1.52,3.212,3.212,0,0,1,.245,1.18q0.022,9.165,0,18.33a2.685,2.685,0,0,1-1.481,2.47,3.008,3.008,0,0,1-.9.25c-0.453.08-.915,0.11-1.369,0.19s-0.875.18-1.314,0.27c-0.16.03-.324,0.05-0.487,0.07-0.457.06-.917,0.1-1.371,0.18-0.576.09-1.147,0.22-1.723,0.31-0.473.08-.953,0.13-1.427,0.21s-0.939.17-1.409,0.26c-0.17.03-.343,0.05-0.514,0.08-0.457.06-.917,0.1-1.371,0.18-0.583.1-1.16,0.23-1.743,0.33-0.465.08-.937,0.11-1.4,0.19s-0.911.19-1.367,0.27c-0.161.04-.326,0.04-0.488,0.07-0.457.05-.916,0.1-1.369,0.18s-0.894.18-1.342,0.26c-0.171.03-.344,0.05-0.517,0.08-0.466.05-.936,0.1-1.4,0.18-0.437.07-.867,0.18-1.3,0.27-0.16.04-.325,0.04-0.488,0.07-0.457.05-.917,0.1-1.371,0.17s-0.9.19-1.345,0.27c-0.179.04-.364,0.05-0.544,0.08-0.528.09-1.056,0.19-1.584,0.27-0.181.03-.363,0.05-0.545,0.07-0.458.06-.917,0.11-1.371,0.18-0.574.1-1.143,0.23-1.717,0.32-0.464.08-.934,0.12-1.4,0.2s-0.916.18-1.375,0.27c-0.161.03-.324,0.05-0.487,0.07-0.464.06-.931,0.1-1.392,0.18s-0.888.19-1.333,0.28c-0.18.03-.365,0.04-0.548,0.06-0.465.06-.931,0.11-1.394,0.18A8.378,8.378,0,0,0,303.97,3720Zm14.059-34.23a10.33,10.33,0,0,0,.915.91,6.115,6.115,0,0,0,2.146,1.09,7.015,7.015,0,0,0,2.7.14,1.123,1.123,0,0,0,.436-0.12c0.214-.1.3-0.03,0.426,0.16a5.8,5.8,0,0,0,2.37,2.11,6.466,6.466,0,0,0,1.836.53,3.648,3.648,0,0,0,1.543-.01,0.312,0.312,0,0,1,.43.23,5.573,5.573,0,0,0,1.76,2.26,4.807,4.807,0,0,0,1.959.97c0.483,0.1.962,0.22,1.47,0.33a5.922,5.922,0,0,0,3.483,3.82c-0.2.05-.33,0.1-0.463,0.12-0.476.06-.955,0.1-1.429,0.18-0.451.07-.9,0.18-1.347,0.26a4.5,4.5,0,0,1-.514.08c-0.457.06-.917,0.11-1.372,0.18-0.591.1-1.178,0.22-1.769,0.32-0.462.08-.929,0.12-1.39,0.2s-0.914.18-1.371,0.26a4.533,4.533,0,0,1-.514.08c-0.465.06-.934,0.1-1.394,0.18-0.378.07-.746,0.2-1.121,0.28-0.159.03-.33,0.02-0.493,0.04-0.5.06-1,.12-1.49,0.2-0.472.07-.939,0.18-1.408,0.26a4.549,4.549,0,0,1-.517.08c-0.466.06-.936,0.1-1.4,0.18-0.574.09-1.144,0.22-1.718,0.31-0.474.08-.953,0.13-1.426,0.21-0.458.08-.911,0.18-1.368,0.27-0.16.03-.324,0.05-0.486,0.07-0.465.06-.932,0.1-1.394,0.18s-0.9.18-1.345,0.27c-0.16.03-.324,0.04-0.486,0.06-0.465.06-.932,0.11-1.393,0.19s-0.892.18-1.339,0.27c-0.17.03-.344,0.05-0.516,0.07-0.457.06-.916,0.1-1.371,0.18-0.586.09-1.167,0.22-1.753,0.32-0.474.08-.955,0.12-1.43,0.2-0.5.08-.992,0.18-1.515,0.28,0-.9-0.021-1.78.018-2.66a1.151,1.151,0,0,1,.379-0.52c0.271-.31.556-0.6,0.834-0.91,0.7-.75,1.4-1.5,2.083-2.27,0.6-.66,1.181-1.35,1.781-2.01,0.848-.94,1.709-1.87,2.561-2.81,0.72-.79,1.43-1.59,2.153-2.38s1.444-1.54,2.152-2.33c0.633-.7,1.245-1.41,1.87-2.12A1.469,1.469,0,0,1,318.029,3685.77Zm23.131,14.76v2.22c0,0.53,0,.51-0.534.59-0.587.09-1.168,0.21-1.754,0.31-0.473.08-.951,0.13-1.423,0.21s-0.93.19-1.4,0.28c-0.17.03-.344,0.04-0.516,0.06-0.455.06-.912,0.11-1.364,0.18s-0.893.18-1.341,0.27c-0.179.03-.362,0.05-0.544,0.07-0.457.06-.917,0.1-1.37,0.18s-0.868.19-1.3,0.28c-0.15.03-.305,0.04-0.458,0.06-0.465.06-.932,0.1-1.395,0.18s-0.9.18-1.346,0.27c-0.161.03-.324,0.05-0.486,0.07-0.477.06-.956,0.1-1.43,0.18-0.574.09-1.143,0.22-1.717,0.32-0.463.08-.933,0.12-1.4,0.2s-0.931.18-1.4,0.27a4.5,4.5,0,0,1-.516.07c-0.455.06-.912,0.1-1.364,0.18s-0.869.19-1.305,0.27a5.5,5.5,0,0,1-.575.07c-0.457.06-.916,0.1-1.37,0.18-0.437.07-.867,0.19-1.3,0.28-0.16.03-.325,0.04-0.487,0.06-0.465.06-.932,0.11-1.4,0.18-0.566.09-1.126,0.21-1.692,0.3-0.482.08-.969,0.14-1.452,0.22s-0.938.18-1.408,0.27c-0.17.03-.343,0.05-0.515,0.07-0.457.06-.915,0.11-1.371,0.18-0.415.06-.826,0.15-1.257,0.23v-2.74Q322.559,3703.535,341.16,3700.53Zm0,5.34c0,0.93,0,1.75-.008,2.58a0.265,0.265,0,0,1-.18.19c-0.539.09-1.083,0.15-1.622,0.24-0.458.08-.91,0.19-1.367,0.28a4.473,4.473,0,0,1-.516.07c-0.456.05-.913,0.1-1.366,0.17-0.6.1-1.2,0.23-1.8,0.33-0.454.08-.914,0.12-1.369,0.19s-0.9.19-1.343,0.27c-0.161.03-.324,0.05-0.486,0.07-0.467.06-.935,0.11-1.4,0.18s-0.9.17-1.354,0.26l-0.541.09c-0.457.06-.918,0.1-1.373,0.17-0.583.1-1.16,0.24-1.743,0.34-0.464.07-.937,0.11-1.4,0.18s-0.91.19-1.367,0.28c-0.17.03-.344,0.04-0.516,0.07-0.455.05-.913,0.1-1.365,0.17s-0.91.19-1.366,0.28c-0.17.04-.345,0.04-0.517,0.07-0.455.05-.913,0.1-1.364,0.17-0.582.1-1.158,0.23-1.74,0.33-0.464.08-.934,0.12-1.4,0.19s-0.9.17-1.353,0.26l-0.2.03c-0.62.08-1.243,0.14-1.86,0.23-1.015.16-2.028,0.34-3.039,0.52-0.458.08-.911,0.19-1.367,0.28-0.132.03-.271,0.02-0.405,0.04-0.478.07-.955,0.14-1.453,0.22v-2.74Z" transform="translate(-303.969 -3678)"/>
</svg>