<svg xmlns="http://www.w3.org/2000/svg" width="32.031" height="44" viewBox="0 0 32.031 44">
  <path d="M316.751,4889.51h10.955c1.409,0,1.842.58,1.669,1.98-0.25,2.04-.413,4.1-0.623,6.14-0.244,2.38-.506,4.76-0.742,7.13-0.087.88-.109,1.76-0.184,2.64-0.163,1.91-.327,3.83-0.517,5.74-0.236,2.38-.5,4.75-0.745,7.13-0.045.44-.029,0.88-0.039,1.32a1.219,1.219,0,0,1-1.288,1.4c-0.106.01-.213,0-0.32,0-5.437,0-10.874-.01-16.311.01-1.193,0-1.751-.19-1.793-1.81-0.055-2.11-.387-4.21-0.6-6.31-0.1-.93-0.228-1.85-0.3-2.79-0.179-2.24-.295-4.49-0.507-6.74-0.267-2.81-.619-5.62-0.9-8.43-0.2-1.97-.377-3.94-0.51-5.91a1.193,1.193,0,0,1,1.413-1.49c1.572-.03,3.145-0.02,4.718-0.02h6.636v0.01Zm-7.639,31.09h3.294q5.554,0,11.108-.01c0.317,0,.73.15,0.776-0.43,0.1-1.23.208-2.46,0.318-3.69,0.1-1.07.194-2.13,0.3-3.2,0.214-2.07.463-4.14,0.648-6.22,0.2-2.24.315-4.49,0.518-6.73,0.249-2.76.551-5.52,0.835-8.32H306.451C307.339,4901.54,308.221,4911.02,309.112,4920.6Zm11.648-33.35c1.2-2.58,2.327-5,3.466-7.42a1.443,1.443,0,0,1,1.426-.83c2.932,0,5.865-.03,8.8.03a2.323,2.323,0,0,1,1.348.61,1.089,1.089,0,0,1,.115,1.02,1.548,1.548,0,0,1-1,.75c-2.634.08-5.272,0.11-7.905,0.05a1.332,1.332,0,0,0-1.39.9c-0.678,1.47-1.323,2.95-2.007,4.42a0.817,0.817,0,0,1-.5.45C322.372,4887.28,321.632,4887.25,320.76,4887.25Zm2,31.64H310.585c-0.735-7.9-1.469-15.8-2.208-23.75h16.591Q323.866,4907.02,322.762,4918.89Zm-7.637-20.77c-0.083.08-.165,0.15-0.247,0.22-0.142.07-.285,0.13-0.427,0.2-0.923.44-1.839,0.9-2.773,1.32-0.535.24-.627,0.51-0.33,1.06a19.41,19.41,0,0,1,1.209,2.65c0.242,0.68.544,0.78,1.127,0.48,0.975-.51,1.976-0.96,2.939-1.49a0.738,0.738,0,0,0,.194-0.67c-0.412-1.03-.883-2.03-1.337-3.04C315.369,4898.6,315.243,4898.36,315.125,4898.12Zm-0.2,18.26c1.21-.66,2.386-1.28,3.537-1.95a0.8,0.8,0,0,0,.006-0.65c-0.464-1.03-.98-2.04-1.449-3.08a0.445,0.445,0,0,0-.743-0.24,31.169,31.169,0,0,1-2.823,1.42,0.654,0.654,0,0,0-.378,1.07c0.489,1.02.965,2.04,1.465,3.05A1.7,1.7,0,0,0,314.924,4916.38Zm2.913-12.83c-0.535,1.27-1.093,2.55-1.592,3.85a0.8,0.8,0,0,0,.355.64c0.921,0.5,1.858.98,2.821,1.39a0.874,0.874,0,0,0,.854-0.2c0.533-1.01.985-2.08,1.442-3.14a0.718,0.718,0,0,0-.446-1.04C320.167,4904.57,319.064,4904.09,317.837,4903.55Z" transform="translate(-303.969 -4879)"/>
</svg>