<svg xmlns="http://www.w3.org/2000/svg" width="43" height="40" viewBox="0 0 43 40">
  <path style="fill: none;stroke: #fe3000;stroke-width: 2px;fill-rule: evenodd;" d="M21.541,3.014c5.052-.017,9.69-3.9,13.253-0.829a20.8,20.8,0,0,1,7.2,15.889A20.85,20.85,0,0,1,21.421,39,20.513,20.513,0,0,1,.989,18.215,21.112,21.112,0,0,1,8.174,2.379C11.774-.777,16.433,3.031,21.541,3.014Z"/>
  <path style="fill-rule: evenodd;fill: #fe3000;" d="M27.754,23.863a1.229,1.229,0,0,1-.292,1.547,1.675,1.675,0,0,1-1.754.016,2.978,2.978,0,0,1-.563,1.264,3.613,3.613,0,0,1-1.482.238c-0.289.793-.684,1.125-1.311,0.926a2.132,2.132,0,0,1-1.481-1.229,1.566,1.566,0,0,0-1.064-1.235,0.456,0.456,0,0,1-.164-0.292,1.88,1.88,0,0,0-1.73-1.453,0.974,0.974,0,0,1-.484-0.3,1.9,1.9,0,0,0-1.57-.639,1.253,1.253,0,0,1-.476-0.161,2.236,2.236,0,0,0-1.014-.357c-0.753.213-1.118-.334-1.63-0.584a0.381,0.381,0,0,1-.115-0.349c0.577-2.116,1.169-4.228,1.769-6.382l1.066,0.081,0.129,0.165a5.058,5.058,0,0,0-.609.415,1.126,1.126,0,0,0,.543,2.027,3.5,3.5,0,0,0,2.351-.2,14.494,14.494,0,0,1,2.608-.894,3.5,3.5,0,0,1,1.96.207,21.51,21.51,0,0,1,7.439,5.415,1.347,1.347,0,0,1,.094,1.216,1.607,1.607,0,0,1-1,.671A3.745,3.745,0,0,1,27.754,23.863Zm3.775-2.44a1.062,1.062,0,0,1-.406.329,0.858,0.858,0,0,1-.645-0.132,29.649,29.649,0,0,0-2.228-2.046c-1.684-1.2-3.433-2.323-5.189-3.43a4.239,4.239,0,0,0-3.785-.176c-0.675.229-1.3,0.6-1.984,0.8a3.99,3.99,0,0,1-1.55.081c-0.5-.066-0.56-0.452-0.217-0.823a9.525,9.525,0,0,1,6.5-3,10.914,10.914,0,0,1,4.028.7c1.129,0.338,2.243.723,3.351,1.118a0.851,0.851,0,0,1,.494.45c0.547,1.919,1.059,3.846,1.578,5.772C31.5,21.136,31.5,21.218,31.529,21.423ZM13.894,14.135c-0.3,1.1-.574,2.131-0.862,3.156-0.441,1.569-.911,3.131-1.326,4.706-0.108.41-.258,0.472-0.651,0.343a12.508,12.508,0,0,0-1.464-.362c-0.458-.09-0.7-0.21-0.543-0.758,0.713-2.456,1.372-4.927,2.075-7.386a0.555,0.555,0,0,1,.462-0.261C12.324,13.721,13.052,13.923,13.894,14.135ZM35,21.374c-0.823.237-1.578,0.475-2.348,0.657a0.579,0.579,0,0,1-.475-0.287c-0.725-2.515-1.419-5.039-2.13-7.557-0.089-.315.024-0.428,0.335-0.5,0.6-.133,1.186-0.293,1.772-0.459a0.419,0.419,0,0,1,.623.351c0.612,2.212,1.25,4.418,1.88,6.626C34.767,20.587,34.88,20.966,35,21.374ZM16.752,25.7c-1.148.474-2,.127-1.913-1.168-1.114-.036-1.5-0.216-1.512-0.749a0.848,0.848,0,0,1,.714-0.881c0.582-.148.833,0.059,1.106,0.786a3.173,3.173,0,0,1,1.357-.076,2.673,2.673,0,0,1,.72,1.043c1.073-.568,1.563-0.207,1.724,1.425A1.15,1.15,0,0,1,20.345,27.1a1.519,1.519,0,0,0,.487.522,1.479,1.479,0,0,1-2.2-.271,0.953,0.953,0,0,0-.524-0.418c-0.983-.117-1.048-0.149-1.282-1.083A0.944,0.944,0,0,0,16.752,25.7Z"/>
</svg>