<svg xmlns="http://www.w3.org/2000/svg" width="18.75" height="18.281" viewBox="0 0 18.75 18.281">
  <path d="M1200.26,44.221a4.724,4.724,0,1,0,4.84,4.723A4.8,4.8,0,0,0,1200.26,44.221Zm0,7.748a3.026,3.026,0,1,1,3.1-3.025A3.08,3.08,0,0,1,1200.26,51.969Zm5.03-8.929a1.071,1.071,0,1,1-1.1,1.07A1.09,1.09,0,0,1,1205.29,43.04Zm2.84-1.7a5.488,5.488,0,0,0-3.98-1.513h-7.79a5.124,5.124,0,0,0-5.49,5.35v7.564a5.238,5.238,0,0,0,1.59,3.947,5.614,5.614,0,0,0,3.94,1.439h7.72a5.684,5.684,0,0,0,3.97-1.439,5.217,5.217,0,0,0,1.55-3.911v-7.6A5.23,5.23,0,0,0,1208.13,41.343Zm-0.15,11.438a3.566,3.566,0,0,1-1.1,2.693,3.974,3.974,0,0,1-2.76.959h-7.72a3.957,3.957,0,0,1-2.76-.959,3.666,3.666,0,0,1-1.03-2.73V45.18a3.635,3.635,0,0,1,1.03-2.693,3.886,3.886,0,0,1,2.76-.959h7.79a3.812,3.812,0,0,1,2.76,1,3.73,3.73,0,0,1,1.03,2.656v7.6h0Z" transform="translate(-1190.88 -39.844)"/>
</svg>