<svg xmlns="http://www.w3.org/2000/svg" width="18" height="20" viewBox="0 0 18 20">
  <path d="M331.522,1107.46A20.41,20.41,0,0,1,321,1122s13.081-.01,18-12.25c-2.689-2.39-7.478-2.29-7.478-2.29h0Zm1.759,3.37c-0.253.45-.478,0.92-0.742,1.37a30.7,30.7,0,0,1-2.709,3.81c-0.148.17-.307,0.33-0.461,0.5-0.169.16-.335,0.33-0.508,0.5-0.167.15-.337,0.31-0.506,0.46s-0.365.31-.547,0.47l0.48-.54c0.146-.17.294-0.35,0.437-0.52s0.29-.37.433-0.56c0.2-.28.4-0.55,0.586-0.84s0.374-.59.554-0.89c0.206-.37.4-0.73,0.6-1.11l0.1-.21a31.108,31.108,0,0,0,1.208-2.93c0.134-.4.235-0.81,0.331-1.22,0.037-.22.074-0.43,0.112-0.65l1.4,0.35a10.574,10.574,0,0,1-.773,2.01h0Zm0,0,4.81-2.66,0.17-.44a4.55,4.55,0,0,0-1.162-.95,5.749,5.749,0,0,0,.179-4.78l-0.736.94a5.276,5.276,0,0,1-1.017,3.34,4.249,4.249,0,0,0-1.634.13l-0.077.43a12.734,12.734,0,0,1,4.277,1.33h0Zm0,0" transform="translate(-321 -1102)"/>
</svg>