<svg xmlns="http://www.w3.org/2000/svg" width="43" height="40" viewBox="0 0 43 40">
  <path style="fill: none;stroke: #fe3000;stroke-width: 2px;fill-rule: evenodd;" d="M21.541,3.014c5.052-.017,9.69-3.9,13.253-0.829a20.8,20.8,0,0,1,7.2,15.889A20.85,20.85,0,0,1,21.421,39,20.513,20.513,0,0,1,.989,18.215,21.112,21.112,0,0,1,8.174,2.379C11.774-.777,16.433,3.031,21.541,3.014Z"/>
  <path style="fill-rule: evenodd;fill: #fe3000;" d="M16.564,19.567a3.471,3.471,0,0,0,2.591-1.014,3.782,3.782,0,0,0,1-2.77,3.79,3.79,0,0,0-1-2.76A3.454,3.454,0,0,0,16.564,12a3.668,3.668,0,0,0-1.843.458,3.222,3.222,0,0,0-1.265,1.317A4.2,4.2,0,0,0,13,15.783a3.781,3.781,0,0,0,1,2.77,3.445,3.445,0,0,0,2.571,1.014h0Zm-1.275,6.262h2.87l9.525-13.655H24.814Zm1.275-8.115a0.99,0.99,0,0,1-.847-0.478,2.585,2.585,0,0,1-.329-1.453,2.587,2.587,0,0,1,.329-1.453,1,1,0,0,1,1.7-.01,2.644,2.644,0,0,1,.319,1.463,2.644,2.644,0,0,1-.319,1.463,0.988,0.988,0,0,1-.857.468h0ZM26.408,26A3.471,3.471,0,0,0,29,24.99a3.782,3.782,0,0,0,1-2.77,3.79,3.79,0,0,0-1-2.76,3.763,3.763,0,0,0-5.161,0,3.788,3.788,0,0,0-1,2.76,3.8,3.8,0,0,0,.986,2.77A3.437,3.437,0,0,0,26.408,26h0Zm0-1.853a0.988,0.988,0,0,1-.857-0.468,2.642,2.642,0,0,1-.319-1.463,2.642,2.642,0,0,1,.319-1.463,1.018,1.018,0,0,1,1.714,0,2.645,2.645,0,0,1,.319,1.463,2.645,2.645,0,0,1-.319,1.463,0.988,0.988,0,0,1-.857.468h0Z"/>
</svg>