<svg xmlns="http://www.w3.org/2000/svg" width="18" height="32" viewBox="0 0 18 32">
  <path d="M315.967,295.492a0.65,0.65,0,1,1-.645.649A0.647,0.647,0,0,1,315.967,295.492Zm-3.245-26.9h3.719a0.353,0.353,0,0,0,0-.705h-3.719A0.353,0.353,0,0,0,312.722,268.588Zm6.125-.683a0.332,0.332,0,1,1-.365.331A0.349,0.349,0,0,1,318.847,267.9Zm6.089,2.2v0.059l0.064-.033Zm-0.7-.28h0.7v-1.349a2.475,2.475,0,0,0-2.463-2.48H309.461a2.475,2.475,0,0,0-2.463,2.48v1.349h17.239Zm-5.39-1.923a0.332,0.332,0,1,1-.365.331A0.349,0.349,0,0,1,318.847,267.9Zm-6.125-.022h3.719a0.353,0.353,0,0,1,0,.705h-3.719A0.353,0.353,0,0,1,312.722,267.883ZM307.7,295.092H307v0.414a2.475,2.475,0,0,0,2.463,2.481h13.012a2.475,2.475,0,0,0,2.463-2.481v-0.414H307.7Zm8.27,1.7a0.65,0.65,0,1,1,.645-0.65A0.648,0.648,0,0,1,315.967,296.791Zm-8.27-25.258H307v22.854h17.938V271.533H307.7ZM310.609,281A1.5,1.5,0,1,1,309,282.5,1.558,1.558,0,0,1,310.609,281ZM316,281a1.5,1.5,0,1,1-1.625,1.5A1.567,1.567,0,0,1,316,281Zm5.391,0a1.5,1.5,0,1,1-1.61,1.5A1.558,1.558,0,0,1,321.391,281Z" transform="translate(-307 -266)"/>
</svg>