<svg xmlns="http://www.w3.org/2000/svg" width="44.031" height="44" viewBox="0 0 44.031 44">
  <path d="M325.731,1052c-5.764-.03-10.315-1.5-14.217-4.63A21.471,21.471,0,0,1,303,1029.98a21.013,21.013,0,0,1,4.8-13.69,21.529,21.529,0,0,1,17.987-8.29,20.958,20.958,0,0,1,12.9,4.77,21.53,21.53,0,0,1,8.289,15.92,21.043,21.043,0,0,1-4.584,14.78A21.387,21.387,0,0,1,325.731,1052Zm-18.4-16.86H307.3a10.715,10.715,0,0,0,.011,1.19,3.356,3.356,0,0,0,.255.96,6.063,6.063,0,0,0,1.573,1.9,4.085,4.085,0,0,1,1.077,1.39c0.225,0.53.434,1.07,0.664,1.6a3.48,3.48,0,0,0,.963,1.34,10.624,10.624,0,0,0,2.365,1.18,5.375,5.375,0,0,1,1.173.74c0.642,0.54,1.2,1.19,1.865,1.7a2.953,2.953,0,0,0,1.327.51,9.258,9.258,0,0,0,1.666.02,4.345,4.345,0,0,1,2.1.4,8.4,8.4,0,0,0,1.189.48,4.368,4.368,0,0,0,1.042.31,5.127,5.127,0,0,0,2.81-.67,4.522,4.522,0,0,1,2.037-.52,15.738,15.738,0,0,0,1.943-.01,3.135,3.135,0,0,0,1.344-.46,16.875,16.875,0,0,0,1.523-1.39,6.058,6.058,0,0,1,1.066-.87c0.618-.34,1.3-0.54,1.934-0.85a4.944,4.944,0,0,0,1.2-.81,6.01,6.01,0,0,0,1.107-2.05,6.826,6.826,0,0,1,.773-1.44,13.608,13.608,0,0,1,1.289-1.31,3.446,3.446,0,0,0,1.116-2.7,14.392,14.392,0,0,1,.008-1.75,5.039,5.039,0,0,1,.278-1.23c0.227-.63.56-1.24,0.749-1.89a2.921,2.921,0,0,0,.123-1.44c-0.187-.77-0.565-1.49-0.83-2.25a4.9,4.9,0,0,1-.318-1.28c-0.052-.73-0.014-1.48-0.015-2.22a1.225,1.225,0,0,0-.013-0.26,4.526,4.526,0,0,0-1.612-2.47,5.1,5.1,0,0,1-1.558-2.2,8.917,8.917,0,0,0-.666-1.53,4.461,4.461,0,0,0-2.653-1.79,5.088,5.088,0,0,1-2.173-1.49,6.589,6.589,0,0,0-1.137-1.08,3.416,3.416,0,0,0-2.135-.62c-0.617.03-1.237,0.01-1.855,0a0.876,0.876,0,0,1-.323-0.04c-0.775-.27-1.542-0.58-2.324-0.84a8.068,8.068,0,0,0-1.289-.3,3.738,3.738,0,0,0-.416.12,4.53,4.53,0,0,0-1.836.54,5.426,5.426,0,0,1-1.176.44c-0.794.09-1.6,0.06-2.4,0.08a5.237,5.237,0,0,0-.562.01,4.626,4.626,0,0,0-2.613,1.7,4.939,4.939,0,0,1-2.16,1.48,12.109,12.109,0,0,0-1.609.77,3.6,3.6,0,0,0-1.525,2.07,6.847,6.847,0,0,1-.739,1.56,14.044,14.044,0,0,1-1.391,1.5,3.834,3.834,0,0,0-1.1,1.76,5.036,5.036,0,0,0-.132.9c-0.037.71-.018,1.43-0.083,2.14a4.5,4.5,0,0,1-.307,1.02c-0.15.43-.322,0.86-0.474,1.29a5.24,5.24,0,0,0-.323,1.04,4.483,4.483,0,0,0,.5,2.41,9.762,9.762,0,0,1,.606,1.67A9.647,9.647,0,0,1,307.326,1035.14Zm18.468,4.7a3.01,3.01,0,1,1,2.968,3.06A2.991,2.991,0,0,1,325.794,1039.84Zm2.992-1.51a1.49,1.49,0,0,0-1.508,1.56,1.416,1.416,0,0,0,1.538,1.48,1.5,1.5,0,0,0,1.536-1.51A1.606,1.606,0,0,0,328.786,1038.33Zm-8.364-5.3a3.017,3.017,0,1,1-3-3.04A3.045,3.045,0,0,1,320.422,1033.03Zm-3.035,1.52a1.527,1.527,0,0,0,1.53-1.48,1.527,1.527,0,1,0-3.053-.04A1.519,1.519,0,0,0,317.387,1034.55Zm12.982-8.34a2.971,2.971,0,0,1,3.311-3.01,3.1,3.1,0,0,1,1.629.71,2.955,2.955,0,0,1,1.036,2.64,2.719,2.719,0,0,1-.7,1.6A3.048,3.048,0,0,1,333,1029.2,3.009,3.009,0,0,1,330.369,1026.21Zm1.456-.02a1.492,1.492,0,0,0,1.531,1.53,1.515,1.515,0,0,0-.012-3.03A1.481,1.481,0,0,0,331.825,1026.19Zm-10.672,14.89a2.629,2.629,0,0,0,1.789-.11,0.839,0.839,0,0,1,.054.29,2.4,2.4,0,0,1-.932,1.55,2.294,2.294,0,0,1-1.907.36,2.893,2.893,0,0,1-1.723-1.04,2.468,2.468,0,0,1-.38-2.73,2,2,0,0,1,1.374-1.09,2.67,2.67,0,0,0,.417,1.75c0.212-.46.385-0.91,0.614-1.32a1.157,1.157,0,0,1,1.5-.33,1.124,1.124,0,0,1,.1,1.91C321.759,1040.56,321.47,1040.81,321.153,1041.08Zm13.185-6.09a2.7,2.7,0,0,0,1.709-.69,8.915,8.915,0,0,0-1.17-.33,1.3,1.3,0,0,1-.865-1.27,1.2,1.2,0,0,1,1.1-.94,1.486,1.486,0,0,1,1.156.55c0.194,0.17.393,0.34,0.641,0.56a3,3,0,0,0-.4-1.78,2.147,2.147,0,0,1,2.4,1.32,2.6,2.6,0,0,1,.143,1.59,3.052,3.052,0,0,1-1.937,2.16,2.165,2.165,0,0,1-2.2-.48A5.541,5.541,0,0,1,334.338,1034.99Zm-13.92-14.13a2.552,2.552,0,0,0-1.348.9c-0.112.15-.164,0.1-0.24-0.04a2.029,2.029,0,0,1-.025-1.96,2.251,2.251,0,0,1,1.316-1.21,2.844,2.844,0,0,1,1.428-.18,2.936,2.936,0,0,1,1.926,1.08,2.044,2.044,0,0,1-.156,2.78,2.34,2.34,0,0,0-1.208-1.19c0.034,0.52.1,1.05,0.092,1.57a0.986,0.986,0,0,1-.774.89,1,1,0,0,1-1.009-.23,1.3,1.3,0,0,1-.242-1.64A6.064,6.064,0,0,0,320.418,1020.86Zm7.562,10.67a2.172,2.172,0,0,1-2.366,2.23,2.277,2.277,0,0,1,.142-4.55A2.231,2.231,0,0,1,327.98,1031.53Zm-2.264.7a0.689,0.689,0,0,0,.806-0.7,0.811,0.811,0,0,0-.752-0.76,0.763,0.763,0,0,0-.774.7A0.654,0.654,0,0,0,325.716,1032.23Zm-11.345-9.01a2.24,2.24,0,0,1,2.279,2.25,2.328,2.328,0,0,1-2.315,2.25,2.278,2.278,0,0,1-2.25-2.25A2.187,2.187,0,0,1,314.371,1023.22Zm-0.026,2.98a0.727,0.727,0,0,0,.776-0.76,0.719,0.719,0,0,0-.727-0.76,0.755,0.755,0,0,0-.8.74A0.741,0.741,0,0,0,314.345,1026.2Zm14.446-4.57a2.25,2.25,0,0,1-2.261-2.24,2.212,2.212,0,0,1,2.288-2.29A2.265,2.265,0,1,1,328.791,1021.63Zm0.008-2.98a0.733,0.733,0,1,0-.035,1.46A0.733,0.733,0,1,0,328.8,1018.65Zm10.7,11.06c-0.666-.07-1.252-0.11-1.83-0.21a0.753,0.753,0,0,1-.552-0.87,0.762,0.762,0,0,1,.947-0.63c0.469,0.07.941,0.14,1.415,0.19a0.778,0.778,0,0,1,.771.85A0.727,0.727,0,0,1,339.494,1029.71Zm-17.522-4.15c0.262,0.08.525,0.16,0.787,0.25,0.315,0.1.635,0.19,0.941,0.32a0.72,0.72,0,0,1,.488,1.03,0.744,0.744,0,0,1-1.038.37c-0.489-.17-0.98-0.34-1.463-0.53A0.739,0.739,0,0,1,321.972,1025.56Zm4.822-2.54a0.855,0.855,0,0,1,.77.77c0.06,0.26.1,0.52,0.162,0.78a0.815,0.815,0,0,1-.564,1.01,0.8,0.8,0,0,1-.9-0.6c-0.1-.39-0.179-0.78-0.265-1.17A0.876,0.876,0,0,1,326.794,1023.02Zm5.015,9.22a2.754,2.754,0,0,1-.218.45c-0.214.3-.447,0.59-0.678,0.88a0.787,0.787,0,0,1-1.03.1,0.722,0.722,0,0,1-.118-1,5.779,5.779,0,0,1,.719-0.96,0.826,0.826,0,0,1,.656-0.22A0.762,0.762,0,0,1,331.809,1032.24Zm0.881-12.81c0.114-.25.221-0.51,0.346-0.75,0.091-.18.214-0.34,0.311-0.51a0.71,0.71,0,0,1,.751-0.38c0.539,0.19.791,0.48,0.624,0.89a6.908,6.908,0,0,1-.784,1.32,0.512,0.512,0,0,1-.692.18A0.8,0.8,0,0,1,332.69,1019.43Zm-8.023-2.89a0.82,0.82,0,0,1-.595.71,0.857,0.857,0,0,1-.832-0.41,6.2,6.2,0,0,1-.163-0.9c-0.027-.17-0.053-0.34-0.064-0.51a0.908,0.908,0,0,1,.664-0.76,0.757,0.757,0,0,1,.843.58A11.424,11.424,0,0,1,324.667,1016.54Zm-12.629,15.43a3.2,3.2,0,0,1-1.392-.45,1.058,1.058,0,0,1-.142-0.85,0.946,0.946,0,0,1,.816-0.41c0.28,0.07.564,0.13,0.847,0.18a0.855,0.855,0,0,1,.824.78A0.784,0.784,0,0,1,312.038,1031.97Zm11.01,4.97a0.818,0.818,0,0,1-.759-1.08c0.053-.27.091-0.54,0.122-0.8a0.933,0.933,0,0,1,.544-0.64,0.789,0.789,0,0,1,.851.39,0.962,0.962,0,0,1,.038.8,2.053,2.053,0,0,0-.04.55A0.7,0.7,0,0,1,323.048,1036.94Zm-7.144,1.43a2.268,2.268,0,0,1-.255.46c-0.276.31-.568,0.61-0.871,0.89a0.658,0.658,0,0,1-.947-0.12,0.793,0.793,0,0,1,0-1.01c0.234-.25.463-0.51,0.71-0.76a0.779,0.779,0,0,1,.845-0.2A0.741,0.741,0,0,1,315.9,1038.37Zm19.713,0.82a3.523,3.523,0,0,1-.5.63,0.777,0.777,0,0,1-.876-0.2,7.007,7.007,0,0,1-.683-0.9,0.718,0.718,0,0,1,.2-1.07,0.706,0.706,0,0,1,.967.18c0.259,0.3.506,0.61,0.737,0.93a1.15,1.15,0,0,1,.1.37Zm-11.584,5.17a0.769,0.769,0,0,1-.726-0.51,0.815,0.815,0,0,1,.185-0.84,4.661,4.661,0,0,1,.35-0.44,0.814,0.814,0,0,1,1.105-.19,0.781,0.781,0,0,1,.058,1.09,4.683,4.683,0,0,1-.451.62A2.1,2.1,0,0,1,324.033,1044.36Zm-11.151-10.54a0.672,0.672,0,0,1,.712.73,0.763,0.763,0,0,1-.762.74,0.8,0.8,0,0,1-.759-0.76A0.763,0.763,0,0,1,312.882,1033.82Zm23.524-10.67a0.828,0.828,0,0,1-.8-0.74,0.763,0.763,0,1,1,1.526-.03A0.771,0.771,0,0,1,336.406,1023.15Zm-8.363,3.85a0.687,0.687,0,0,1,.732.72,0.7,0.7,0,0,1-.745.73,0.816,0.816,0,0,1-.777-0.7A0.763,0.763,0,0,1,328.043,1027Zm-0.063,8.33a0.721,0.721,0,0,1-.69.74,0.76,0.76,0,1,1,.007-1.52A0.706,0.706,0,0,1,327.98,1035.33Zm0,9.11a0.634,0.634,0,0,1-.706.71,0.7,0.7,0,0,1-.744-0.71,0.673,0.673,0,0,1,.756-0.74A0.623,0.623,0,0,1,327.98,1044.44Zm-12.849-23.61a0.711,0.711,0,0,1-.772-0.72,0.835,0.835,0,0,1,.792-0.73,0.71,0.71,0,0,1,.7.77A0.614,0.614,0,0,1,315.131,1020.83Zm4.5,7.62a0.642,0.642,0,0,1-.733.74,0.653,0.653,0,0,1-.713-0.69,0.761,0.761,0,0,1,.735-0.77A0.678,0.678,0,0,1,319.626,1028.45Z" transform="translate(-303 -1008)"/>
</svg>