<svg xmlns="http://www.w3.org/2000/svg" width="43.969" height="39.97" viewBox="0 0 43.969 39.97">
  <path d="M346.99,3004.18v6.17a2.285,2.285,0,0,0-.086.34c-0.038.31-.05,0.63-0.1,0.94-0.064.4-.146,0.81-0.235,1.21-0.116.52-.233,1.04-0.374,1.55a23.313,23.313,0,0,1-1.1,3.09c-0.05.12-.106,0.23-0.162,0.35-0.047.1-.1,0.19-0.145,0.29s-0.079.23-.135,0.33c-0.095.19-.2,0.36-0.305,0.54-0.158.29-.305,0.58-0.471,0.86s-0.328.52-.5,0.78c-0.243.37-.468,0.76-0.741,1.11-0.545.69-1.109,1.37-1.682,2.04-0.252.29-.543,0.55-0.822,0.82-0.348.34-.689,0.68-1.059,0.99-0.522.44-1.059,0.86-1.606,1.26-0.371.27-.765,0.51-1.156,0.76a0.39,0.39,0,0,0-.242.41,0.684,0.684,0,0,1-.1.38,0.983,0.983,0,0,1-.932.53c-0.479-.01-0.958.01-1.436,0a1.394,1.394,0,0,1-.641-0.05,0.085,0.085,0,0,0-.083.01,0.7,0.7,0,0,1-.134.04,1.378,1.378,0,0,0-.195-0.04c-0.1,0-.195.04-0.293,0.04H314.915a0.771,0.771,0,0,1-.334-0.08,1.1,1.1,0,0,1-.551-0.72,0.168,0.168,0,0,1,.009-0.11,0.227,0.227,0,0,0-.095-0.34c-0.1-.06-0.212-0.1-0.309-0.17-0.54-.37-1.084-0.73-1.612-1.11a16.373,16.373,0,0,1-2.231-1.95c-0.559-.59-1.117-1.18-1.628-1.81-0.492-.6-0.929-1.25-1.377-1.89-0.191-.28-0.351-0.57-0.522-0.86-0.2-.33-0.4-0.66-0.582-1-0.171-.32-0.322-0.66-0.474-0.99-0.192-.42-0.391-0.84-0.557-1.28-0.2-.52-0.375-1.06-0.549-1.59a19.234,19.234,0,0,1-.727-3.06c-0.028-.19-0.052-0.37-0.081-0.55-0.016-.1-0.047-0.19-0.057-0.29a4.05,4.05,0,0,0-.039-0.5,4.962,4.962,0,0,1-.088-1.02,5.149,5.149,0,0,0-.083-0.6v-4.8a1.548,1.548,0,0,1,.215-0.02c0.879-.01,1.758-0.01,2.637-0.01h0.175c-0.083-.18-0.157-0.34-0.228-0.5-0.136-.31-0.294-0.62-0.4-0.94a10.972,10.972,0,0,1-.356-1.33,12.1,12.1,0,0,1-.188-1.53,13.382,13.382,0,0,1,.027-1.43,5.1,5.1,0,0,1,.1-0.72c0.063-.31.137-0.62,0.217-0.93a7.057,7.057,0,0,1,.212-0.68c0.094-.25.2-0.5,0.313-0.75a6.317,6.317,0,0,1,.287-0.57,0.12,0.12,0,0,1,.206-0.04c0.094,0.06.2,0.12,0.3,0.18,0.526,0.31,1.051.62,1.576,0.94,0.331,0.19.663,0.39,1,.58,0.255,0.15.513,0.3,0.766,0.45,0.23,0.14.454,0.29,0.685,0.43,0.3,0.18.593,0.36,0.893,0.53a0.856,0.856,0,0,0,.4.17c0.35-.03.7-0.11,1.046-0.16,0.388-.06.775-0.11,1.163-0.16,0.28-.04.405-0.21,0.274-0.44-0.2-.35-0.424-0.68-0.631-1.03a3.191,3.191,0,0,1-.218-0.42,2.843,2.843,0,0,1-.116-0.34,2.75,2.75,0,0,1-.141-0.59,2.112,2.112,0,0,1,.066-0.85c0.059-.16.1-0.33,0.168-0.49a1.705,1.705,0,0,1,.252-0.43c0.1-.13.168-0.29,0.275-0.42,0.166-.19.35-0.37,0.534-0.55a3.371,3.371,0,0,1,.27-0.21c0.16-.14.306-0.3,0.475-0.43,0.244-.18.5-0.34,0.756-0.5,0.141-.09.3-0.15,0.439-0.24,0.283-.17.557-0.37,0.845-0.53,0.254-.15.522-0.27,0.788-0.4,0.192-.09.391-0.16,0.589-0.24,0.114-.05.231-0.08,0.349-0.12a4.824,4.824,0,0,1,.64-0.15,6.969,6.969,0,0,1,.914,0,1.628,1.628,0,0,1,.484.11,2.061,2.061,0,0,1,.448.25c0.224,0.16.443,0.32,0.652,0.49,0.344,0.29.663,0.62,1.019,0.89a2.411,2.411,0,0,0,1.442.47,3.194,3.194,0,0,0,1.216-.25,6.282,6.282,0,0,0,1.272-.75c0.379-.28.745-0.58,1.125-0.85,0.224-.17.471-0.3,0.693-0.47a1.2,1.2,0,0,1,.557-0.22,0.859,0.859,0,0,1,.953.65,6.248,6.248,0,0,1,.116.71,4.435,4.435,0,0,1,.026.62c-0.014.39-.044,0.77-0.069,1.19a1.7,1.7,0,0,0,.141-0.14,3.554,3.554,0,0,1,1.309-.88,5.122,5.122,0,0,1,1.734-.27c0.253-.01.508,0.04,0.759,0.02a5.72,5.72,0,0,1,.719.07,6.3,6.3,0,0,1,.742.13c0.511,0.11,1.022.23,1.532,0.35a5.159,5.159,0,0,1,2.032.89,2.09,2.09,0,0,1,.648.75,2.658,2.658,0,0,1,.179.55,1.985,1.985,0,0,1-.095,1.09c-0.035.11-.062,0.22-0.1,0.33a2.021,2.021,0,0,1-.107.25c-0.051.11-.107,0.22-0.153,0.34-0.025.06-.027,0.13-0.053,0.19-0.088.2-.184,0.39-0.275,0.59-0.052.11-.011,0.2,0.1,0.2a3.119,3.119,0,0,0,.682-0.04c0.237-.03.468-0.11,0.7-0.16s0.459-.06.686-0.1a6.658,6.658,0,0,1,1.473-.17,1.043,1.043,0,0,0,.175-0.02c0.207-.01.417-0.04,0.622-0.03,0.321,0.03.643,0.08,0.959,0.14a3.309,3.309,0,0,1,.682.22,2.392,2.392,0,0,1,.519.33,1.967,1.967,0,0,1,.669.87c0.048,0.11.115,0.23,0.173,0.34v1.55c-0.057.14-.115,0.27-0.169,0.41-0.126.32-.228,0.66-0.379,0.97a17.451,17.451,0,0,1-1.371,2.32c-0.207.3-.412,0.6-0.627,0.91h2.546Zm-7.316,0c0.782,0,1.525.01,2.267,0a0.166,0.166,0,0,0,.119-0.07,3.5,3.5,0,0,0,.26-0.31c0.364-.5.718-1.02,1.086-1.52a15.132,15.132,0,0,0,1.337-2.23,7.344,7.344,0,0,0,.4-1.16,0.607,0.607,0,0,0-.026-0.31,0.615,0.615,0,0,0-.554-0.4,3.846,3.846,0,0,0-.9-0.07c-0.359,0-.717.04-1.076,0.06a0.374,0.374,0,0,0-.1.03l-0.342.06c-0.053.01-.108,0-0.16,0.01-0.234.05-.465,0.12-0.7,0.17-0.3.06-.593,0.12-0.892,0.15a3.3,3.3,0,0,1-1.327-.05,1.759,1.759,0,0,1-.653-0.34,2.165,2.165,0,0,1-.432-0.49,2.02,2.02,0,0,1-.274-0.54,2.369,2.369,0,0,1,.133-1.64c0.187-.46.375-0.92,0.581-1.36a0.184,0.184,0,0,0-.068-0.25,0.759,0.759,0,0,0-.2-0.12,3.914,3.914,0,0,0-.99-0.38c-0.311-.06-0.614-0.17-0.925-0.23-0.344-.08-0.691-0.15-1.04-0.2q-0.635-.09-1.274-0.12a6.168,6.168,0,0,0-.857.05,1.437,1.437,0,0,0-.971.45c-0.369.41-.7,0.87-1.064,1.28a7.918,7.918,0,0,1-.858.86,6.66,6.66,0,0,1-.761.5,4.787,4.787,0,0,1-1.406.55,5.247,5.247,0,0,1-1.765.13c-0.352-.05-0.708-0.07-1.052-0.15-0.568-.14-1.128-0.31-1.706-0.47,0.006,0.03.01,0.06,0.019,0.1,0.079,0.29.151,0.59,0.24,0.88,0.174,0.56.351,1.13,0.541,1.68,0.171,0.51.365,1.01,0.539,1.52a0.138,0.138,0,0,0,.156.11H325.5c0,0.01,0,.02,0,0.03a0.45,0.45,0,0,1-.129.05,2.679,2.679,0,0,1,.412.01,3.974,3.974,0,0,1,.48.09,6.054,6.054,0,0,1,.73.2,4.486,4.486,0,0,1,.678.35,8.068,8.068,0,0,1,.763.5,5.008,5.008,0,0,1,1,1.04,4.946,4.946,0,0,1,.667,1.18c0.143,0.39.14,0.39,0.434,0.37,0.008,0,.016-0.01.042-0.02-0.021-.17-0.057-0.34-0.064-0.51a5.233,5.233,0,0,1,.285-2.06,5.058,5.058,0,0,1,.865-1.49,4.474,4.474,0,0,1,1.4-1.11,4.681,4.681,0,0,1,1.972-.5,4.614,4.614,0,0,1,1.518.24,0.158,0.158,0,0,0,.215-0.08,0.817,0.817,0,0,1,.5-0.35,1.12,1.12,0,0,1,.6.02,0.98,0.98,0,0,1,.508,1.37,0.17,0.17,0,0,0,.03.23,4.157,4.157,0,0,1,.77,1.07,3.661,3.661,0,0,1,.349.89c0.053,0.26.111,0.52,0.163,0.79a1.634,1.634,0,0,1,.033.27c0.006,0.22.011,0.44,0,.66C339.721,3003.79,339.694,3003.98,339.674,3004.18Zm5.485,2H304.931c0,0.63,0,5.22.006,5.83h1.722c0.548,0,1.1-.01,1.645-0.01h5.041c0.556,0,1.113-.01,1.669,0s1.117,0.03,1.676.03c0.529,0,1.057-.03,1.586-0.03,0.561-.01,1.123,0,1.685,0h5.025c0.561,0,1.123-.01,1.684-0.01s1.123,0.01,1.685.01h16.773C345.181,3011.87,345.206,3006.6,345.159,3006.18Zm-22.194-5.4c-0.222-.65-0.447-1.3-0.663-1.94-0.158-.48-0.318-0.96-0.452-1.44-0.111-.41-0.192-0.82-0.277-1.23-0.055-.27-0.095-0.54-0.135-0.81a3.475,3.475,0,0,1-.031-0.38,0.3,0.3,0,0,1,.034-0.12c0.092,0.02.053-.05,0.063-0.09a1.008,1.008,0,0,1,1.385-.9c0.321,0.07.644,0.13,0.96,0.22,0.352,0.09.693,0.25,1.048,0.33a9.827,9.827,0,0,0,1.509.3,3.418,3.418,0,0,0,1.806-.29,0.323,0.323,0,0,0,.228-0.34c0.024-.38.059-0.76,0.091-1.14,0-.02.014-0.04,0.016-0.06,0.032-.32.063-0.63,0.1-0.99a1.763,1.763,0,0,0-.177.09c-0.224.16-.44,0.33-0.669,0.48a6.209,6.209,0,0,1-2.331.98,4.756,4.756,0,0,1-1.506.01,4.464,4.464,0,0,1-1.462-.5,8.537,8.537,0,0,1-1.623-1.31,0.971,0.971,0,0,0-.938-0.36,4.948,4.948,0,0,0-1.011.34c-0.621.32-1.229,0.67-1.828,1.03a5.887,5.887,0,0,0-1.717,1.42,0.812,0.812,0,0,0-.085,1.05c0.251,0.43.515,0.87,0.757,1.31a2.1,2.1,0,0,1,.2,1.53,2.081,2.081,0,0,1-1.42,1.56c-0.107.04-.217,0.07-0.353,0.11a1.351,1.351,0,0,0,.125.1c0.187,0.11.374,0.23,0.566,0.33a2.339,2.339,0,0,1,.486.33,1.011,1.011,0,0,0,.257.11c0.33,0.19.659,0.39,0.986,0.59,0.293,0.18.582,0.36,0.875,0.53l1.538,0.93c0.3,0.17.593,0.35,0.891,0.52,0.057,0.04.1,0.07,0.164-.03a7.656,7.656,0,0,1,.508-0.69,5,5,0,0,1,1.233-1.09C322.39,3001.1,322.674,3000.95,322.965,3000.78Zm-9.8,3.4s0-.01,0-0.01a0.946,0.946,0,0,0-.162-0.05,4.468,4.468,0,0,1-2.343-1.42,3.815,3.815,0,0,1-.7-1.06c-0.108-.27-0.243-0.52-0.329-0.79a3.933,3.933,0,0,1-.151-0.76,5.9,5.9,0,0,1-.029-0.92,0.351,0.351,0,0,0-.225-0.36c-0.331-.19-0.662-0.38-0.988-0.57s-0.644-.41-0.969-0.6a1.992,1.992,0,0,0-.272-0.12c-0.016.11-.021,0.19-0.037,0.27a6.991,6.991,0,0,0-.15.73c-0.033.33-.035,0.67-0.04,1.01a4.447,4.447,0,0,0,.034.46c0.029,0.33.047,0.65,0.1,0.97a4.234,4.234,0,0,0,.165.57c0.065,0.23.11,0.46,0.193,0.68s0.219,0.45.319,0.68a6.582,6.582,0,0,0,.7,1.17,0.266,0.266,0,0,0,.242.13c1.5-.01,3-0.01,4.5-0.01h0.145Zm24.542,0c0.03-.17.047-0.34,0.092-0.5a2.031,2.031,0,0,0-.027-1.01,2.727,2.727,0,0,0-.886-1.53,2.477,2.477,0,0,0-1.665-.66c-0.2,0-.4-0.01-0.6,0a1.243,1.243,0,0,0-.254.09,3.026,3.026,0,0,0-.531.21,3.811,3.811,0,0,0-.625.51,3.543,3.543,0,0,0-.38.46,4.067,4.067,0,0,1-.2.37,1.588,1.588,0,0,0-.128.38,1.472,1.472,0,0,0-.1.62,2.7,2.7,0,0,0,.178,1.06h5.13Zm-9.553,0c-0.06-.1-0.1-0.18-0.16-0.26a3.567,3.567,0,0,0-1.265-1.12,4.677,4.677,0,0,0-.717-0.29,2.426,2.426,0,0,0-.645-0.14c-0.3-.01-0.6.03-0.9,0.05a2.739,2.739,0,0,0-1.006.32,3.526,3.526,0,0,0-1.24,1.04,0.511,0.511,0,0,0-.2.4h6.129Zm-16.66-4.01a0.064,0.064,0,0,0-.035.02,2.74,2.74,0,0,0,.113.38,2.832,2.832,0,0,0,1.109,1.31,2.6,2.6,0,0,0,1.96.33,0.844,0.844,0,0,0,.145-0.08C313.664,3001.46,312.578,3000.81,311.492,3000.17Zm6.7,4.01a0.944,0.944,0,0,1-.071-0.07c-0.413-.24-0.825-0.49-1.243-0.73a0.232,0.232,0,0,0-.194.03c-0.358.18-.707,0.39-1.072,0.55a5.686,5.686,0,0,1-.668.22h3.248Z" transform="translate(-303.031 -2989)"/>
</svg>