<svg xmlns="http://www.w3.org/2000/svg" width="18" height="15.031" viewBox="0 0 18 15.031">
  <path d="M281.676,34.715a0.217,0.217,0,0,1,.08-0.105l0.092-.065a0.329,0.329,0,0,1,.132-0.035c0.065-.008.109-0.012,0.132-0.012h3.582a1.75,1.75,0,0,0,1.3-.551,1.827,1.827,0,0,0,.54-1.326V24.363a1.827,1.827,0,0,0-.54-1.326,1.75,1.75,0,0,0-1.3-.551H282.02a0.341,0.341,0,0,1-.235-0.076,0.393,0.393,0,0,1-.115-0.229,2.051,2.051,0,0,1-.034-0.276,2.858,2.858,0,0,1,.006-0.311c0.007-.125.011-0.2,0.011-0.235a0.364,0.364,0,0,1,.109-0.264,0.35,0.35,0,0,1,.258-0.111h3.674a3.15,3.15,0,0,1,2.336.991,3.289,3.289,0,0,1,.97,2.387v8.259a3.288,3.288,0,0,1-.97,2.387,3.15,3.15,0,0,1-2.336.991H282.02a0.341,0.341,0,0,1-.235-0.076,0.392,0.392,0,0,1-.115-0.229,2.053,2.053,0,0,1-.034-0.276,2.857,2.857,0,0,1,.006-0.311c0.007-.125.011-0.2,0.011-0.235A0.485,0.485,0,0,1,281.676,34.715Zm-10.458-6.751,6.245-6.382a0.71,0.71,0,0,1,1.033,0,0.727,0.727,0,0,1,.218.528v3.379h5.143a0.7,0.7,0,0,1,.517.223,0.731,0.731,0,0,1,.218.528v4.5a0.73,0.73,0,0,1-.218.528,0.7,0.7,0,0,1-.517.223h-5.143v3.379a0.726,0.726,0,0,1-.218.528,0.71,0.71,0,0,1-1.033,0l-6.245-6.382a0.748,0.748,0,0,1,0-1.056h0Z" transform="translate(-271 -20.969)"/>
</svg>