<svg xmlns="http://www.w3.org/2000/svg" width="27" height="23" viewBox="0 0 27 23">
  <path d="M326.934,371.011c0.943,0.077,1.219.988,0.992,2.057l-4.208,19.8c-0.274,1.287-1.226,1.446-2.373.6l-5.945-4.407-3.266,3.2a1,1,0,0,1-1.748-.232l-2.45-7.632-5.794-1.857c-2.234-.717-0.633-1.733.123-2.032l23.5-9.267a2.667,2.667,0,0,1,1.17-.225v0Zm-4.169,4.121a1.321,1.321,0,0,0-.45.181l-13.257,8.536c-0.08.048-.168,0.042-0.085,0.3l2.145,6.685,0.436-4.542a0.289,0.289,0,0,1,.109-0.233l11.193-10.206c0.619-.564.337-0.8-0.091-0.721h0Z" transform="translate(-301 -371)"/>
</svg>