<svg xmlns="http://www.w3.org/2000/svg" width="43" height="40" viewBox="0 0 43 40">
  <path style="fill: none;stroke: #fe3000;stroke-width: 2px;fill-rule: evenodd;" d="M21.541,3.014c5.052-.017,9.69-3.9,13.253-0.829a20.8,20.8,0,0,1,7.2,15.888A20.85,20.85,0,0,1,21.421,39,20.513,20.513,0,0,1,.989,18.215,21.112,21.112,0,0,1,8.174,2.379C11.774-.777,16.433,3.032,21.541,3.014Z"/>
  <path style="fill-rule: evenodd;fill: #fe3000;" d="M19.777,24.753a0.836,0.836,0,0,0,1.2,0l9.795-9.242a0.805,0.805,0,0,0,0-1.132l-1.229-1.132A0.758,0.758,0,0,0,28.958,13a0.866,0.866,0,0,0-.614.251l-7.969,7.545-3.719-3.521a0.867,0.867,0,0,0-.614-0.252,0.759,0.759,0,0,0-.581.252L14.232,18.4a0.805,0.805,0,0,0,0,1.132Z"/>
</svg>