<svg xmlns="http://www.w3.org/2000/svg" width="27.031" height="25" viewBox="0 0 27.031 25">
  <path d="M330.956,531.558a0.57,0.57,0,0,0-.516-0.326h-1.681a12.5,12.5,0,1,0-1.463,8.525,1.135,1.135,0,1,0-1.965-1.138,10.243,10.243,0,1,1,1.1-7.39h-1.67a0.565,0.565,0,0,0-.513.329,0.557,0.557,0,0,0,.079.6l2.837,3.411a0.568,0.568,0,0,0,.87,0l2.84-3.411a0.573,0.573,0,0,0,.079-0.6h0Zm0,0-14.476-7.717a1.135,1.135,0,0,0-1.134,1.138v6.9a1.987,1.987,0,0,0,1.137,3.617,1.942,1.942,0,0,0,.836-0.191l3.949,2.282a1.123,1.123,0,0,0,.567.154,1.137,1.137,0,0,0,.569-2.121l-3.954-2.285a1.984,1.984,0,0,0-.834-1.456v-6.9a1.138,1.138,0,0,0-1.136-1.138h0Zm0,10.516a0.853,0.853,0,1,1,.853-0.855,0.854,0.854,0,0,1-.853.855h0Zm0,0" transform="translate(-304 -521)"/>
</svg>