<svg xmlns="http://www.w3.org/2000/svg" width="19.63" height="14.969" viewBox="0 0 19.63 14.969">
  <path d="M1276.15,43.266a8.451,8.451,0,0,1-2.31.595,3.825,3.825,0,0,0,1.76-2.091,8.268,8.268,0,0,1-2.55.918,4.139,4.139,0,0,0-2.94-1.194,3.905,3.905,0,0,0-4.02,3.779,3.507,3.507,0,0,0,.1.861,11.677,11.677,0,0,1-8.29-3.949,3.559,3.559,0,0,0-.55,1.9,3.722,3.722,0,0,0,1.79,3.145,4.178,4.178,0,0,1-1.82-.473v0.048a3.853,3.853,0,0,0,3.23,3.705,4.352,4.352,0,0,1-1.06.132,4.3,4.3,0,0,1-.76-0.068,4,4,0,0,0,3.76,2.624,8.411,8.411,0,0,1-5,1.618,8.749,8.749,0,0,1-.96-0.053,11.937,11.937,0,0,0,6.17,1.7,11.019,11.019,0,0,0,11.45-10.752c0-.163,0-0.327-0.01-0.489A7.855,7.855,0,0,0,1276.15,43.266Z" transform="translate(-1256.53 -41.5)"/>
</svg>