<svg xmlns="http://www.w3.org/2000/svg" width="16.969" height="18" viewBox="0 0 16.969 18">
  <path d="M41.942,81.747a11.6,11.6,0,0,0-.169-1.275,9.7,9.7,0,0,0-.32-1.27,5.94,5.94,0,0,0-.519-1.141,4.142,4.142,0,0,0-.748-0.948,3.167,3.167,0,0,0-1.031-.626,3.723,3.723,0,0,0-1.345-.234,1.493,1.493,0,0,0-.507.252q-0.4.252-.9,0.562a5.782,5.782,0,0,1-1.3.562,5.279,5.279,0,0,1-3.221,0,5.774,5.774,0,0,1-1.3-.562q-0.5-.31-0.9-0.562a1.494,1.494,0,0,0-.507-0.252,3.722,3.722,0,0,0-1.345.234,3.163,3.163,0,0,0-1.031.626,4.133,4.133,0,0,0-.748.948,5.928,5.928,0,0,0-.519,1.141,9.666,9.666,0,0,0-.32,1.27,11.555,11.555,0,0,0-.169,1.275Q25,82.338,25,82.958a2.87,2.87,0,0,0,.881,2.217,3.313,3.313,0,0,0,2.34.813H38.763a3.313,3.313,0,0,0,2.34-.813,2.87,2.87,0,0,0,.881-2.217Q41.984,82.338,41.942,81.747Zm-8.45-13.731a4.533,4.533,0,0,0-3.275,1.316,4.4,4.4,0,0,0,0,6.354,4.732,4.732,0,0,0,6.55,0,4.4,4.4,0,0,0,0-6.354A4.533,4.533,0,0,0,33.492,68.016Z" transform="translate(-25 -68)"/>
</svg>