<svg xmlns="http://www.w3.org/2000/svg" width="22" height="22" viewBox="0 0 22 22">
  <path d="M33.417,18C40.032,17.99,45.085,22.92,45,29.158a10.6,10.6,0,0,1-2.542,6.867,10.719,10.719,0,0,1-8.009,3.962A10.507,10.507,0,0,1,27.275,37.7,10.774,10.774,0,0,1,23,29.127a10.451,10.451,0,0,1,.518-3.5A10.894,10.894,0,0,1,27.6,20.051,10.351,10.351,0,0,1,33.417,18ZM41.23,35.158a9.275,9.275,0,0,0,2.217-7.207,9.488,9.488,0,0,0-11.07-8.322,9.115,9.115,0,0,0-6.053,3.757,9.349,9.349,0,0,0-1.49,8.15,8.923,8.923,0,0,0,1.948,3.654,7.364,7.364,0,0,1,3.692-5.308,5.533,5.533,0,0,0,7.043.008A7.213,7.213,0,0,1,39.983,32.1,7.584,7.584,0,0,1,41.23,35.158Zm-7.221-5.421a4.008,4.008,0,0,1-4.016-4.306,3.818,3.818,0,0,1,.794-2.114,3.94,3.94,0,0,1,3.566-1.591A4.013,4.013,0,0,1,34.009,29.737Z" transform="translate(-23 -18)"/>
</svg>