<svg xmlns="http://www.w3.org/2000/svg" width="27" height="27" viewBox="0 0 27 27">
  <path style="fill-rule: evenodd;" d="M312,336.37c1.671,1.667,5.361,3.846,7.071,3.846a3.249,3.249,0,0,0,3.214-2.564V336.37s-1.581-.769-2.571-1.282-2.571,1.282-2.571,1.282A7.709,7.709,0,0,1,312,331.243s1.8-1.577,1.285-2.564S312,326.115,312,326.115h-1.286a3.245,3.245,0,0,0-2.571,3.2C308.143,331.025,310.328,334.7,312,336.37Zm4.5-6.409a1.925,1.925,0,0,1,1.928,1.923m-1.928-7.051a7.061,7.061,0,0,1,7.071,7.051M316.5,327.4a4.494,4.494,0,0,1,4.5,4.487m-4.5-10.9c-7.007,0-13.5,1.128-13.5,11.538,0,6.666,2.674,9.525,6.428,10.717v3.346a1.286,1.286,0,0,0,2.327.871l3.009-3.422H316.5c7.007,0,13.5-1.116,13.5-11.538S323.507,320.987,316.5,320.987Z" transform="translate(-303 -321)"/>
</svg>