<svg xmlns="http://www.w3.org/2000/svg" width="18.75" height="13.313" viewBox="0 0 18.75 13.313">
  <path d="M1176.19,45.2a4.109,4.109,0,0,0-.74-1.877,2.69,2.69,0,0,0-1.88-.8c-2.63-.191-6.57-0.191-6.57-0.191h0s-3.94,0-6.57.191a2.69,2.69,0,0,0-1.88.8,4.109,4.109,0,0,0-.74,1.877,28.5,28.5,0,0,0-.19,3.062v1.435a28.484,28.484,0,0,0,.19,3.062,4.11,4.11,0,0,0,.74,1.877,3.171,3.171,0,0,0,2.07.808c1.5,0.146,6.38.191,6.38,0.191s3.94-.006,6.57-0.2a2.691,2.691,0,0,0,1.88-.8,4.11,4.11,0,0,0,.74-1.877,28.471,28.471,0,0,0,.19-3.062V48.258A28.5,28.5,0,0,0,1176.19,45.2Zm-11.13,6.236V46.118l5.07,2.667Z" transform="translate(-1157.63 -42.313)"/>
</svg>