<svg xmlns="http://www.w3.org/2000/svg" width="9" height="11" viewBox="0 0 9 11">
  <path d="M5.371,10.072a4.646,4.646,0,0,0,1.735-.318,3.633,3.633,0,0,0,1.351-.918L7.893,8.272A3.3,3.3,0,0,1,5.407,9.28a3.652,3.652,0,0,1-1.813-.456A3.331,3.331,0,0,1,2.316,7.576,3.457,3.457,0,0,1,1.853,5.8a3.457,3.457,0,0,1,.462-1.776A3.332,3.332,0,0,1,3.594,2.776,3.654,3.654,0,0,1,5.407,2.32a3.349,3.349,0,0,1,2.485,1l0.564-.564A3.586,3.586,0,0,0,7.112,1.84a4.68,4.68,0,0,0-1.729-.312,4.624,4.624,0,0,0-2.257.552A4.032,4.032,0,0,0,1.547,3.61,4.267,4.267,0,0,0,.977,5.8a4.266,4.266,0,0,0,.57,2.19A4.041,4.041,0,0,0,3.12,9.52a4.588,4.588,0,0,0,2.251.552h0Z"/>
  <rect x="3" width="1" height="11"/>
  <rect x="5" width="1" height="11"/>
</svg>